<?xml version="1.0" encoding="UTF-8"?>
<svg width="462px" height="422px" viewBox="0 0 462 422" version="1.1" xmlns="http://www.w3.org/2000/svg" xmlns:xlink="http://www.w3.org/1999/xlink">
    <!-- Generator: Sketch 55.2 (78181) - https://sketchapp.com -->
    <title>群組</title>
    <desc>Created with Sketch.</desc>
    <g id="Page-1" stroke="none" stroke-width="1" fill="none" fill-rule="evenodd">
        <g id="new-game" transform="translate(-664.000000, -202.000000)">
            <g id="群組" transform="translate(894.500000, 400.089613) scale(-1, 1) translate(-894.500000, -400.089613) translate(640.000000, 204.089613)">
                <rect id="遮罩" x="0" y="0.910575164" width="509" height="390.17885" rx="58"></rect>
                <g transform="translate(254.000000, 208.910387) scale(-1, 1) translate(-254.000000, -208.910387) translate(23.000000, -2.089613)" fill="#E37F45" fill-rule="nonzero">
                    <path d="M419.034983,268 C418.358059,268 417.837349,267.47929 417.837349,266.802367 C417.837349,243.214201 437.051551,224 460.639716,224 C461.316639,224 461.837349,224.52071 461.837349,225.197633 C461.837349,225.874556 461.316639,226.395266 460.639716,226.395266 C438.353326,226.395266 420.232616,244.515976 420.232616,266.802367 C420.232616,267.47929 419.711906,268 419.034983,268 Z" id="路徑"></path>
                    <path d="M289.811446,220 C250.646178,220 218.837349,187.962413 218.837349,148.631718 L218.837349,63.1981536 C218.837349,62.5209364 219.355409,62 220.028885,62 L359.645813,62 C360.31929,62 360.837349,62.5209364 360.837349,63.1981536 L360.837349,148.631718 C360.785543,187.962413 328.976715,220 289.811446,220 Z M221.168615,64.3963073 L221.168615,148.631718 C221.168615,186.660073 251.941326,217.655786 289.759641,217.655786 C327.577955,217.655786 358.402472,186.712166 358.402472,148.631718 L358.402472,64.3963073 L221.168615,64.3963073 Z" id="形狀"></path>
                    <path d="M306.581744,179.65 L274.040638,179.65 C273.360518,179.65 272.837349,179.15 272.837349,178.5 C272.837349,177.85 273.360518,177.35 274.040638,177.35 L306.634061,177.35 C307.31418,177.35 307.837349,177.85 307.837349,178.5 C307.785033,179.15 307.261864,179.65 306.581744,179.65 Z" id="路徑"></path>
                    <path d="M297.677686,185.65 L281.997013,185.65 C281.341551,185.65 280.837349,185.15 280.837349,184.5 C280.837349,183.85 281.341551,183.35 281.997013,183.35 L297.677686,183.35 C298.333148,183.35 298.837349,183.85 298.837349,184.5 C298.837349,185.15 298.282728,185.65 297.677686,185.65 Z" id="路徑"></path>
                    <path d="M281.337349,219 C280.687349,219 280.187349,218.495798 280.187349,217.840336 L280.187349,202.159664 C280.187349,201.504202 280.687349,201 281.337349,201 C281.987349,201 282.487349,201.504202 282.487349,202.159664 L282.487349,217.840336 C282.487349,218.495798 281.987349,219 281.337349,219 Z" id="路徑"></path>
                    <path d="M292.337349,219 C291.687349,219 291.187349,218.495798 291.187349,217.840336 L291.187349,202.159664 C291.187349,201.504202 291.687349,201 292.337349,201 C292.987349,201 293.487349,201.504202 293.487349,202.159664 L293.487349,217.840336 C293.487349,218.495798 292.937349,219 292.337349,219 Z" id="路徑"></path>
                    <path d="M287.337349,219 C286.687349,219 286.187349,218.495798 286.187349,217.840336 L286.187349,202.159664 C286.187349,201.504202 286.687349,201 287.337349,201 C287.987349,201 288.487349,201.504202 288.487349,202.159664 L288.487349,217.840336 C288.487349,218.495798 287.987349,219 287.337349,219 Z" id="路徑"></path>
                    <path d="M298.337349,219 C297.687349,219 297.187349,218.495798 297.187349,217.840336 L297.187349,202.159664 C297.187349,201.504202 297.687349,201 298.337349,201 C298.987349,201 299.487349,201.504202 299.487349,202.159664 L299.487349,217.840336 C299.487349,218.495798 298.937349,219 298.337349,219 Z" id="路徑"></path>
                    <path d="M255.674614,144 C254.989514,144 254.462515,143.479167 254.462515,142.802083 C254.462515,133.739583 247.031822,126.395833 237.862031,126.395833 C228.69224,126.395833 221.261547,133.739583 221.261547,142.802083 C221.261547,143.479167 220.734548,144 220.049448,144 C219.364349,144 218.837349,143.479167 218.837349,142.802083 C218.837349,132.4375 227.374741,124 237.809331,124 C248.296621,124 256.834012,132.4375 256.834012,142.802083 C256.886712,143.427083 256.307013,144 255.674614,144 Z" id="路徑"></path>
                    <path d="M360.674326,144 C359.989232,144 359.462236,143.479167 359.462236,142.802083 C359.462236,133.739583 352.031602,126.395833 342.861882,126.395833 C333.692163,126.395833 326.261528,133.739583 326.261528,142.802083 C326.261528,143.479167 325.734533,144 325.049439,144 C324.364345,144 323.837349,143.479167 323.837349,142.802083 C323.837349,132.4375 332.374674,124 342.809183,124 C353.296391,124 361.833716,132.4375 361.833716,142.802083 C361.886415,143.427083 361.35942,144 360.674326,144 Z" id="路徑"></path>
                    <path d="M309.708317,186 C309.41055,186 309.112784,185.897682 308.914272,185.641886 C306.929161,183.595524 305.837349,180.884093 305.837349,178.019185 C305.837349,175.103118 306.929161,172.391687 308.914272,170.345324 C309.360923,169.884892 310.105339,169.884892 310.502362,170.345324 C310.949012,170.805755 310.949012,171.521982 310.502362,171.982414 C308.9639,173.568345 308.0706,175.717026 308.0706,177.968026 C308.0706,180.219025 308.914272,182.367706 310.502362,183.953637 C310.949012,184.414069 310.949012,185.130296 310.502362,185.590727 C310.254223,185.897682 310.006084,186 309.708317,186 Z" id="路徑"></path>
                    <path d="M270.966382,186 C270.668615,186 270.370848,185.897354 270.172337,185.640738 C269.725687,185.178829 269.725687,184.460305 270.172337,183.998396 C271.710799,182.407378 272.604099,180.251804 272.604099,177.993585 C272.604099,175.735365 271.760426,173.579791 270.172337,171.988773 C269.725687,171.526864 269.725687,170.80834 270.172337,170.346431 C270.618987,169.884523 271.313776,169.884523 271.760426,170.346431 C273.745538,172.399358 274.837349,175.119487 274.837349,178.044908 C274.837349,180.919006 273.745538,183.690457 271.760426,185.692061 C271.561915,185.897354 271.264148,186 270.966382,186 Z" id="路徑"></path>
                    <path d="M219.578313,64 C219.150919,64 218.723525,63.7399572 218.509828,63.3758973 L185.974477,1.74575941 C185.653932,1.1736653 185.921053,0.445545531 186.50872,0.1334942 C187.096386,-0.178557131 187.844325,0.081485645 188.16487,0.653579752 L220.700222,62.2837177 C221.020767,62.8558118 220.753646,63.5839316 220.165979,63.8959829 C219.952282,63.9479914 219.738586,64 219.578313,64 Z" id="路徑"></path>
                    <path d="M360.042962,64 C359.829265,64 359.668992,63.9480337 359.50872,63.844101 C358.921053,63.5323031 358.653932,62.8047745 358.974477,62.2331449 L391.509828,0.653049063 C391.830374,0.0814194808 392.578313,-0.178412147 393.165979,0.133385806 C393.753646,0.44518376 394.020767,1.17271232 393.700222,1.7443419 L361.16487,63.3764041 C360.951174,63.7921347 360.52378,64 360.042962,64 Z" id="路徑"></path>
                    <g transform="translate(320.837349, 62.000000)" id="路徑">
                        <path d="M39.7782114,46.9908043 C0.562276423,46.9908043 0.0910569106,2.021 0.0910569106,1.55202174 C0.0910569106,0.874608696 0.614634146,0.353521739 1.29528455,0.353521739 C1.97593496,0.353521739 2.4995122,0.874608696 2.4995122,1.55202174 C2.4995122,1.65623913 2.55186992,12.5469565 7.21170732,23.2292391 C13.3899187,37.4028043 24.3326829,44.5416957 39.7258537,44.5416957 C40.4065041,44.5416957 40.9300813,45.0627826 40.9300813,45.7401957 C40.9300813,46.4176087 40.4588618,46.9908043 39.7782114,46.9908043 Z"></path>
                        <path d="M39.7782114,36.8817174 C9.20130081,36.8817174 8.88715447,1.91678261 8.88715447,1.55202174 C8.88715447,0.874608696 9.41073171,0.353521739 10.0913821,0.353521739 L10.0913821,0.353521739 C10.7720325,0.353521739 11.2956098,0.874608696 11.2956098,1.55202174 C11.2956098,2.90684783 11.6621138,34.4847174 39.8305691,34.4847174 C40.5112195,34.4847174 41.0347967,35.0058043 41.0347967,35.6832174 C40.982439,36.3606304 40.4588618,36.8817174 39.7782114,36.8817174 Z"></path>
                        <path d="M39.7782114,25.9388913 C18.6780488,25.9388913 18.4162602,1.81256522 18.4162602,1.55202174 C18.4162602,0.874608696 18.9398374,0.353521739 19.6204878,0.353521739 L19.6204878,0.353521739 C20.3011382,0.353521739 20.8247154,0.874608696 20.8247154,1.55202174 C20.8247154,2.43786957 21.0865041,23.5418913 39.7782114,23.5418913 C40.4588618,23.5418913 40.982439,24.0629783 40.982439,24.7403913 C40.982439,25.4178043 40.4588618,25.9388913 39.7782114,25.9388913 Z"></path>
                        <path d="M39.7782114,15.5171522 C30.0396748,15.5171522 27.4741463,6.39813043 27.4741463,1.55202174 C27.4741463,0.874608696 27.9977236,0.353521739 28.678374,0.353521739 L28.678374,0.353521739 C29.3590244,0.353521739 29.8826016,0.874608696 29.8826016,1.55202174 C29.8826016,2.021 30.0396748,13.1201522 39.7782114,13.1201522 C40.4588618,13.1201522 40.982439,13.6412391 40.982439,14.3186522 C40.982439,14.9960652 40.4588618,15.5171522 39.7782114,15.5171522 Z"></path>
                    </g>
                    <g transform="translate(218.837349, 62.000000)" id="路徑">
                        <path d="M1.28011111,46.9908043 C0.599055556,46.9908043 0.0751666667,46.4697174 0.0751666667,45.7923043 C0.0751666667,45.1148913 0.599055556,44.5938043 1.28011111,44.5938043 C16.6824444,44.5938043 27.6317222,37.4028043 33.8136111,23.2813478 C38.4762222,12.5990652 38.5286111,1.70834783 38.5286111,1.60413043 C38.5286111,0.926717391 39.0525,0.405630435 39.7335556,0.405630435 L39.7335556,0.405630435 C40.4146111,0.405630435 40.9385,0.926717391 40.9385,1.60413043 C40.9385,2.021 40.5193889,46.9908043 1.28011111,46.9908043 Z"></path>
                        <path d="M1.28011111,36.8817174 C0.599055556,36.8817174 0.0751666667,36.3606304 0.0751666667,35.6832174 C0.0751666667,35.0058043 0.599055556,34.4847174 1.28011111,34.4847174 C29.4653333,34.4847174 29.7796667,2.85473913 29.7796667,1.55202174 C29.7796667,0.874608696 30.3035556,0.353521739 30.9846111,0.353521739 C31.6656667,0.353521739 32.1895556,0.874608696 32.1895556,1.55202174 C32.1895556,1.91678261 31.8228333,36.8817174 1.28011111,36.8817174 Z"></path>
                        <path d="M1.28011111,25.9388913 C0.599055556,25.9388913 0.0751666667,25.4178043 0.0751666667,24.7403913 C0.0751666667,24.0629783 0.599055556,23.5418913 1.28011111,23.5418913 C19.9829444,23.5418913 20.2448889,2.43786957 20.2448889,1.55202174 C20.2448889,0.874608696 20.7687778,0.353521739 21.4498333,0.353521739 L21.4498333,0.353521739 C22.1308889,0.353521739 22.6547778,0.874608696 22.6547778,1.55202174 C22.6547778,1.81256522 22.3928333,25.9388913 1.28011111,25.9388913 Z"></path>
                        <path d="M1.28011111,15.5171522 C0.599055556,15.5171522 0.0751666667,14.9960652 0.0751666667,14.3186522 C0.0751666667,13.6412391 0.599055556,13.1201522 1.28011111,13.1201522 C11.0768333,13.1201522 11.1816111,2.021 11.1816111,1.55202174 C11.1816111,0.874608696 11.7055,0.353521739 12.3865556,0.353521739 L12.3865556,0.353521739 C13.0676111,0.353521739 13.5915,0.874608696 13.5915,1.55202174 C13.5915,6.39813043 11.0244444,15.5171522 1.28011111,15.5171522 Z"></path>
                    </g>
                    <path d="M365.639188,53.65 L215.035511,53.65 C214.358289,53.65 213.837349,53.15 213.837349,52.5 C213.837349,51.85 214.358289,51.35 215.035511,51.35 L365.639188,51.35 C366.31641,51.35 366.837349,51.85 366.837349,52.5 C366.837349,53.15 366.31641,53.65 365.639188,53.65 Z" id="路徑"></path>
                    <path d="M368.640212,47.65 L211.034487,47.65 C210.357844,47.65 209.837349,47.15 209.837349,46.5 C209.837349,45.85 210.357844,45.35 211.034487,45.35 L368.640212,45.35 C369.316855,45.35 369.837349,45.85 369.837349,46.5 C369.837349,47.15 369.264805,47.65 368.640212,47.65 Z" id="路徑"></path>
                    <path d="M377.638872,29.65 L202.035827,29.65 C201.358427,29.65 200.837349,29.15 200.837349,28.5 C200.837349,27.85 201.358427,27.35 202.035827,27.35 L377.638872,27.35 C378.316272,27.35 378.837349,27.85 378.837349,28.5 C378.837349,29.15 378.316272,29.65 377.638872,29.65 Z" id="路徑"></path>
                    <path d="M374.584542,36.65 L205.037956,36.65 C204.359352,36.65 203.837349,36.15 203.837349,35.5 C203.837349,34.85 204.359352,34.35 205.037956,34.35 L374.636742,34.35 C375.315346,34.35 375.837349,34.85 375.837349,35.5 C375.837349,36.15 375.263146,36.65 374.584542,36.65 Z" id="路徑"></path>
                    <path d="M289.337044,22 C285.164679,22 281.837349,18.6197183 281.837349,14.5 C281.837349,10.3802817 285.217493,7 289.337044,7 C293.456595,7 296.836739,10.3802817 296.836739,14.5 C296.889554,18.6197183 293.509409,22 289.337044,22 Z M289.337044,9.37676056 C286.537862,9.37676056 284.214013,11.6478873 284.214013,14.5 C284.214013,17.2992958 286.485048,19.6232394 289.337044,19.6232394 C292.136226,19.6232394 294.40726,17.3521127 294.40726,14.5 C294.460075,11.6478873 292.189041,9.37676056 289.337044,9.37676056 Z" id="形狀"></path>
                    <path d="M238.337349,22 C234.217631,22 230.837349,18.6197183 230.837349,14.5 C230.837349,10.3802817 234.217631,7 238.337349,7 C242.509885,7 245.837349,10.3802817 245.837349,14.5 C245.837349,18.6197183 242.509885,22 238.337349,22 Z M238.337349,9.37676056 C235.538054,9.37676056 233.266927,11.6478873 233.266927,14.5 C233.266927,17.2992958 235.538054,19.6232394 238.337349,19.6232394 C241.136645,19.6232394 243.460589,17.3521127 243.460589,14.5 C243.460589,11.6478873 241.136645,9.37676056 238.337349,9.37676056 Z" id="形狀"></path>
                    <path d="M342.337349,22 C338.217631,22 334.837349,18.6197183 334.837349,14.5 C334.837349,10.3802817 338.217631,7 342.337349,7 C346.509885,7 349.837349,10.3802817 349.837349,14.5 C349.837349,18.6197183 346.457068,22 342.337349,22 Z M342.337349,9.37676056 C339.538054,9.37676056 337.266927,11.6478873 337.266927,14.5 C337.266927,17.2992958 339.538054,19.6232394 342.337349,19.6232394 C345.136645,19.6232394 347.460589,17.3521127 347.460589,14.5 C347.407772,11.6478873 345.136645,9.37676056 342.337349,9.37676056 Z" id="形狀"></path>
                    <path d="M324.645982,226 L255.028716,226 C254.355335,226 253.837349,225.495549 253.837349,224.839763 L253.837349,210.160237 C253.837349,209.504451 254.355335,209 255.028716,209 C255.702098,209 256.220083,209.504451 256.220083,210.160237 L256.220083,223.679525 L323.454616,223.679525 L323.454616,210.160237 C323.454616,209.504451 323.972601,209 324.645982,209 C325.319364,209 325.837349,209.504451 325.837349,210.160237 L325.837349,224.839763 C325.837349,225.495549 325.319364,226 324.645982,226 Z" id="路徑"></path>
                    <path d="M289.837349,236 C272.381234,236 253.837349,231.873016 253.837349,224.186508 C253.837349,223.515873 254.355335,223 255.028716,223 C255.702098,223 256.220083,223.515873 256.220083,224.186508 C256.220083,228.674603 270.050299,233.626984 289.837349,233.626984 C309.676198,233.626984 323.454616,228.623016 323.454616,224.186508 C323.454616,223.515873 323.972601,223 324.645982,223 C325.319364,223 325.837349,223.515873 325.837349,224.186508 C325.837349,231.873016 307.293465,236 289.837349,236 Z" id="路徑"></path>
                    <path d="M289.837349,245 C264.047876,245 243.837349,235.847172 243.837349,224.198119 C243.837349,219.361681 247.311034,214.837272 253.889981,211.144938 C254.468928,210.83291 255.20577,211.040929 255.52156,211.61298 C255.837349,212.185032 255.679455,212.913098 255.100507,213.225126 C251.100507,215.461328 246.258402,219.257672 246.258402,224.250123 C246.258402,234.235026 266.20577,242.659788 289.837349,242.659788 C313.468928,242.659788 333.416297,234.235026 333.416297,224.250123 C333.416297,220.349771 330.311034,216.449418 324.574192,213.225126 C323.995244,212.913098 323.784718,212.185032 324.153139,211.61298 C324.468928,211.040929 325.20577,210.83291 325.784718,211.144938 C332.363665,214.837272 335.837349,219.361681 335.837349,224.198119 C335.837349,235.847172 315.626823,245 289.837349,245 Z" id="路徑"></path>
                    <path d="M460.643029,408 C459.967978,408 459.448708,407.478579 459.448708,406.800733 C459.448708,355.023675 448.647897,285.414036 397.136335,247.976043 C366.395564,225.607103 335.343232,225.398534 335.03167,225.398534 C334.356619,225.398534 333.837349,224.877114 333.837349,224.199267 C333.837349,223.521421 334.356619,223 335.03167,223 C335.343232,223 367.174469,223.26071 398.538364,246.046787 C450.880757,284.058343 461.837349,354.450113 461.837349,406.800733 C461.837349,407.426437 461.266153,408 460.643029,408 Z" id="路徑"></path>
                    <path d="M120.03167,408 C119.356619,408 118.837349,407.478579 118.837349,406.800733 C118.837349,354.450113 129.845869,284.058343 182.136335,246.046787 C213.50023,223.26071 245.331467,223 245.643029,223 C246.31808,223 246.837349,223.521421 246.837349,224.199267 C246.837349,224.877114 246.31808,225.398534 245.643029,225.398534 C245.331467,225.398534 214.17528,225.659245 183.43451,248.080327 C132.026802,285.570462 121.22599,355.075817 121.22599,406.852875 C121.22599,407.426437 120.706721,408 120.03167,408 Z" id="路徑"></path>
                    <path d="M120.63467,422 C119.954895,422 119.431991,421.484476 119.431991,420.814294 L119.431991,407.049795 C119.431991,337.247803 72.2660443,336.371412 70.2790089,336.371412 L52.3956899,336.371412 C50.4086545,336.371412 3.24270808,337.299356 3.24270808,407.049795 C3.24270808,407.719977 2.71980402,408.235501 2.04002874,408.235501 C1.36025346,408.235501 0.837349398,407.719977 0.837349398,407.049795 C0.837349398,369.41652 14.7988879,351.579379 26.5119389,343.227885 C39.270798,334.103105 51.8727859,334 52.3956899,334 L70.2790089,334 C70.8019129,334 121.837349,334.824839 121.837349,407.049795 L121.837349,420.814294 C121.837349,421.432923 121.314445,422 120.63467,422 Z" id="路徑"></path>
                    <g transform="translate(45.837349, 196.000000)">
                        <path d="M35.9526316,102.011812 C26.4173684,102.011812 17.4552632,98.3191089 10.7336842,91.5578218 C4.01210526,84.8485446 0.260526316,75.9028416 0.260526316,66.3850297 C0.260526316,56.8672178 3.96,47.9215149 10.7336842,41.2122376 L49.4478947,2.56888119 C52.5221053,-0.49970297 57.8368421,-0.49970297 60.9110526,2.56888119 C64.0894737,5.74148515 64.0894737,10.8384554 60.9110526,14.0110594 L38.0368421,36.8434059 C37.5678947,37.311495 36.8384211,37.311495 36.3694737,36.8434059 C35.9005263,36.3753168 35.9005263,35.6471782 36.3694737,35.1790891 L59.2436842,12.3467426 C61.4842105,10.1103168 61.4842105,6.52163366 59.2436842,4.28520792 C57.1073684,2.15280198 53.3557895,2.15280198 51.1673684,4.28520792 L12.4531579,42.9285644 C6.14842105,49.2217624 2.70947368,57.5433465 2.70947368,66.4370396 C2.70947368,75.3307327 6.20052632,83.6523168 12.4531579,89.9455149 C14.3289474,91.8178713 16.4131579,93.4301782 18.6015789,94.7824356 C15.84,85.4206535 18.3410526,75.3307327 25.3752632,68.309396 C30.4294737,63.2644356 37.2031579,60.455901 44.3936842,60.455901 C51.1673684,60.455901 57.5763158,62.9523762 62.5263158,67.4772376 L74.1978947,55.8270198 C77.2721053,52.7584356 82.5868421,52.7584356 85.6610526,55.8270198 C88.8394737,58.9996238 88.8394737,64.0965941 85.6610526,67.269198 L61.2757895,91.6098317 C54.45,98.267099 45.4878947,102.011812 35.9526316,102.011812 Z M21.6757895,96.3947426 C26.1047368,98.4751386 30.9505263,99.5673465 35.9526316,99.5673465 C44.8626316,99.5673465 53.1994737,96.1346931 59.5042105,89.841495 L83.8894737,65.5008614 C86.13,63.2644356 86.13,59.6757525 83.8894737,57.4393267 C81.7531579,55.3069208 78.0015789,55.3069208 75.8131579,57.4393267 L63.3078947,69.921703 C62.8389474,70.3897921 62.0573684,70.3897921 61.6405263,69.921703 C57.0031579,65.2928218 50.8547368,62.7443366 44.3415789,62.7443366 C37.7763158,62.7443366 31.6278947,65.2928218 27.0426316,69.921703 C20.0084211,76.9430396 17.9242105,87.2930099 21.6757895,96.3947426 Z" id="形狀"></path>
                        <path d="M74.9794737,57.803396 C74.6668421,57.803396 74.3542105,57.6993762 74.1457895,57.4393267 C73.6768421,56.9712376 73.6768421,56.243099 74.1457895,55.7750099 L94.5189474,35.4391386 C96.7594737,33.2027129 96.7594737,29.6140297 94.5189474,27.377604 C92.3826316,25.245198 88.6310526,25.245198 86.4426316,27.377604 L57.5242105,56.243099 C57.0552632,56.7111881 56.3257895,56.7111881 55.8568421,56.243099 C55.3878947,55.7750099 55.3878947,55.0468713 55.8568421,54.5787822 L84.7752632,25.7132871 C87.8494737,22.644703 93.1642105,22.644703 96.2384211,25.7132871 C99.4168421,28.8858911 99.4168421,33.9828614 96.2384211,37.1554653 L75.8652632,57.4913366 C75.6047368,57.6993762 75.2921053,57.803396 74.9794737,57.803396 Z" id="路徑"></path>
                        <path d="M56.6384211,56.6071683 C56.3257895,56.6071683 56.0131579,56.5031485 55.8047368,56.243099 C55.3357895,55.7750099 55.3357895,55.0468713 55.8047368,54.5787822 L89.6210526,20.8763663 C91.8615789,18.6399406 91.8615789,15.0512574 89.6210526,12.8148317 C87.3805263,10.5784059 83.7852632,10.5784059 81.5447368,12.8148317 L47.7805263,46.5172475 C47.3115789,46.9853366 46.5821053,46.9853366 46.1131579,46.5172475 C45.6442105,46.0491584 45.6442105,45.3210198 46.1131579,44.8529307 L79.8773684,11.1505149 C83.0557895,8.02992079 88.1621053,7.97791089 91.3405263,11.1505149 C94.5189474,14.3231188 94.5189474,19.4200891 91.3405263,22.5926931 L57.5242105,56.2951089 C57.2636842,56.5031485 56.9510526,56.6071683 56.6384211,56.6071683 Z" id="路徑"></path>
                        <path d="M46.8947368,46.8813168 C46.5821053,46.8813168 46.2694737,46.777297 46.0610526,46.5172475 C45.5921053,46.0491584 45.5921053,45.3210198 46.0610526,44.8529307 L74.9794737,15.9874356 C77.22,13.7510099 77.22,10.1623267 74.9794737,7.92590099 C72.7389474,5.68947525 69.1436842,5.68947525 66.9031579,7.92590099 L37.9847368,36.791396 C37.5157895,37.2594851 36.7863158,37.2594851 36.3173684,36.791396 C35.8484211,36.3233069 35.8484211,35.5951683 36.3173684,35.1270792 L65.2357895,6.26158416 C68.4142105,3.0889802 73.5205263,3.0889802 76.6989474,6.26158416 C79.8773684,9.43418812 79.8773684,14.5311584 76.6989474,17.7037624 L47.7805263,46.5692574 C47.52,46.777297 47.2073684,46.8813168 46.8947368,46.8813168 Z" id="路徑"></path>
                    </g>
                    <path d="M415.589958,264.65 L164.032766,264.65 C163.357096,264.65 162.837349,264.15 162.837349,263.5 C162.837349,262.85 163.357096,262.35 164.032766,262.35 L415.641933,262.35 C416.317603,262.35 416.837349,262.85 416.837349,263.5 C416.785375,264.15 416.265629,264.65 415.589958,264.65 Z" id="路徑"></path>
                    <path d="M441.638372,305.65 L138.036327,305.65 C137.358644,305.65 136.837349,305.15 136.837349,304.5 C136.837349,303.85 137.358644,303.35 138.036327,303.35 L441.638372,303.35 C442.316055,303.35 442.837349,303.85 442.837349,304.5 C442.837349,305.15 442.316055,305.65 441.638372,305.65 Z" id="路徑"></path>
                    <path d="M445.588472,313.65 L135.034191,313.65 C134.357715,313.65 133.837349,313.15 133.837349,312.5 C133.837349,311.85 134.357715,311.35 135.034191,311.35 L445.640508,311.35 C446.316984,311.35 446.837349,311.85 446.837349,312.5 C446.785313,313.15 446.264947,313.65 445.588472,313.65 Z" id="路徑"></path>
                    <g transform="translate(167.837349, 224.000000)" id="路徑">
                        <path d="M8.00551071,41.3261789 C7.7453712,41.3261789 7.48523169,41.2214634 7.27712008,41.0643902 L0.825660189,35.7762602 C0.305381166,35.3573984 0.253353264,34.6243902 0.669576482,34.100813 C1.0857997,33.5772358 1.81419033,33.524878 2.33446936,33.9437398 L8.78592925,39.2318699 C9.30620827,39.6507317 9.35823617,40.3837398 8.94201295,40.9073171 C8.68187344,41.1691057 8.36970603,41.3261789 8.00551071,41.3261789 Z"></path>
                        <path d="M35.2161036,41.3261789 C34.9559641,41.3261789 34.6958246,41.2214634 34.487713,41.0643902 L14.4049427,24.624065 C13.8846637,24.2052033 13.8326358,23.4721951 14.248859,22.9486179 C14.6650822,22.4250407 15.3934728,22.3726829 15.9137519,22.7915447 L35.9965222,39.2318699 C36.5168012,39.6507317 36.5688291,40.3837398 36.1526059,40.9073171 C35.8924664,41.1691057 35.580299,41.3261789 35.2161036,41.3261789 Z"></path>
                        <path d="M62.4266966,41.3261789 C62.1665571,41.3261789 61.9064175,41.2214634 61.6983059,41.0643902 L29.6491181,14.8331707 C29.1288391,14.4143089 29.0768112,13.6813008 29.4930344,13.1577236 C29.9092576,12.6341463 30.6376482,12.5817886 31.1579273,13.0006504 L63.2071151,39.2318699 C63.7273941,39.6507317 63.779422,40.3837398 63.3631988,40.9073171 C63.1030593,41.1691057 62.7908919,41.3261789 62.4266966,41.3261789 Z"></path>
                        <path d="M89.6372895,41.3261789 C89.37715,41.3261789 89.1170105,41.2214634 88.9088989,41.0643902 L47.5467165,7.18894309 C47.0264375,6.7700813 46.9744096,6.03707317 47.3906328,5.51349593 C47.806856,4.9899187 48.5352466,4.93756098 49.0555257,5.35642276 L90.417708,39.2318699 C90.937987,39.6507317 90.9900149,40.3837398 90.5737917,40.9073171 C90.3136522,41.1691057 90.0014848,41.3261789 89.6372895,41.3261789 Z"></path>
                        <path d="M116.847882,41.3261789 C116.587743,41.3261789 116.327603,41.2214634 116.119492,41.0643902 L68.6180169,2.16260163 C68.0977379,1.74373984 68.04571,1.01073171 68.4619332,0.487154472 C68.8781565,-0.0364227642 69.6065471,-0.0887804878 70.1268261,0.330081301 L117.628301,39.2318699 C118.14858,39.6507317 118.200608,40.3837398 117.784385,40.9073171 C117.524245,41.1691057 117.212078,41.3261789 116.847882,41.3261789 Z"></path>
                        <path d="M144.058475,41.3261789 C143.798336,41.3261789 143.538196,41.2214634 143.330085,41.0643902 L118.928999,21.0637398 C118.408719,20.644878 118.356692,19.9118699 118.772915,19.3882927 C119.189138,18.8647154 119.917529,18.8123577 120.437808,19.2312195 L144.838894,39.2318699 C145.359173,39.6507317 145.411201,40.3837398 144.994978,40.9073171 C144.734838,41.1691057 144.422671,41.3261789 144.058475,41.3261789 Z"></path>
                        <path d="M171.269068,41.3261789 C171.008929,41.3261789 170.748789,41.2214634 170.540678,41.0643902 L143.174001,18.6552846 C142.653722,18.2364228 142.601694,17.5034146 143.017917,16.9798374 C143.434141,16.4562602 144.162531,16.4039024 144.68281,16.8227642 L172.049487,39.2318699 C172.569766,39.6507317 172.621794,40.3837398 172.205571,40.9073171 C171.945431,41.1691057 171.633264,41.3261789 171.269068,41.3261789 Z"></path>
                        <path d="M198.479661,41.3261789 C198.219522,41.3261789 197.959382,41.2214634 197.751271,41.0643902 L160.655376,10.6969106 C160.135097,10.2780488 160.083069,9.54504065 160.499292,9.02146341 C160.915516,8.49788618 161.643906,8.44552846 162.164185,8.86439024 L199.26008,39.2318699 C199.780359,39.6507317 199.832387,40.3837398 199.416163,40.9073171 C199.156024,41.1691057 198.843857,41.3261789 198.479661,41.3261789 Z"></path>
                        <path d="M225.690254,41.3261789 C225.430115,41.3261789 225.169975,41.2214634 224.961863,41.0643902 L178.084723,2.68617886 C177.564444,2.26731707 177.512417,1.53430894 177.92864,1.01073171 C178.344863,0.487154472 179.073254,0.434796748 179.593533,0.853658537 L226.470673,39.2318699 C226.990952,39.6507317 227.04298,40.3837398 226.626756,40.9073171 C226.366617,41.1691057 226.054449,41.3261789 225.690254,41.3261789 Z"></path>
                    </g>
                    <g transform="translate(184.837349, 224.000000)" id="路徑">
                        <path d="M219.452262,41.3261789 C219.088095,41.3261789 218.775952,41.1691057 218.515833,40.9073171 C218.099643,40.3837398 218.20369,39.6507317 218.671905,39.2318699 L225.122857,33.9437398 C225.643095,33.524878 226.371429,33.5772358 226.787619,34.100813 C227.20381,34.6243902 227.099762,35.3573984 226.631548,35.7762602 L220.180595,41.0643902 C219.9725,41.2214634 219.712381,41.3261789 219.452262,41.3261789 Z"></path>
                        <path d="M192.24381,41.3261789 C191.879643,41.3261789 191.5675,41.1691057 191.307381,40.9073171 C190.89119,40.3837398 190.995238,39.6507317 191.463452,39.2318699 L211.544643,22.7915447 C212.064881,22.3726829 212.793214,22.4250407 213.209405,22.9486179 C213.625595,23.4721951 213.521548,24.2052033 213.053333,24.624065 L192.972143,41.0643902 C192.764048,41.2214634 192.503929,41.3261789 192.24381,41.3261789 Z"></path>
                        <path d="M165.035357,41.3261789 C164.67119,41.3261789 164.359048,41.1691057 164.098929,40.9073171 C163.682738,40.3837398 163.786786,39.6507317 164.255,39.2318699 L196.301667,13.0006504 C196.821905,12.5817886 197.550238,12.6341463 197.966429,13.1577236 C198.382619,13.6813008 198.278571,14.4143089 197.810357,14.8331707 L165.76369,41.0643902 C165.555595,41.2214634 165.295476,41.3261789 165.035357,41.3261789 Z"></path>
                        <path d="M137.826905,41.3261789 C137.462738,41.3261789 137.150595,41.1691057 136.890476,40.9073171 C136.474286,40.3837398 136.578333,39.6507317 137.046548,39.2318699 L178.405476,5.35642276 C178.925714,4.93756098 179.654048,4.9899187 180.070238,5.51349593 C180.486429,6.03707317 180.382381,6.7700813 179.914167,7.18894309 L138.555238,41.0643902 C138.347143,41.2214634 138.087024,41.3261789 137.826905,41.3261789 Z"></path>
                        <path d="M110.618452,41.3261789 C110.254286,41.3261789 109.942143,41.1691057 109.682024,40.9073171 C109.265833,40.3837398 109.369881,39.6507317 109.838095,39.2318699 L157.335833,0.330081301 C157.856071,-0.0887804878 158.584405,-0.0364227642 159.000595,0.487154472 C159.416786,1.01073171 159.312738,1.74373984 158.844524,2.16260163 L111.346786,41.0643902 C111.13869,41.2214634 110.878571,41.3261789 110.618452,41.3261789 Z"></path>
                        <path d="M83.41,41.3261789 C83.0458333,41.3261789 82.7336905,41.1691057 82.4735714,40.9073171 C82.057381,40.3837398 82.1614286,39.6507317 82.6296429,39.2318699 L107.02881,19.2312195 C107.549048,18.8123577 108.277381,18.8647154 108.693571,19.3882927 C109.109762,19.9118699 109.005714,20.644878 108.5375,21.0637398 L84.1383333,41.0643902 C83.9302381,41.2214634 83.670119,41.3261789 83.41,41.3261789 Z"></path>
                        <path d="M56.2015476,41.3261789 C55.837381,41.3261789 55.5252381,41.1691057 55.265119,40.9073171 C54.8489286,40.3837398 54.9529762,39.6507317 55.4211905,39.2318699 L82.7857143,16.8227642 C83.3059524,16.4039024 84.0342857,16.4562602 84.4504762,16.9798374 C84.8666667,17.5034146 84.762619,18.2364228 84.2944048,18.6552846 L56.929881,41.0643902 C56.7217857,41.2214634 56.4616667,41.3261789 56.2015476,41.3261789 Z"></path>
                        <path d="M28.9930952,41.3261789 C28.6289286,41.3261789 28.3167857,41.1691057 28.0566667,40.9073171 C27.6404762,40.3837398 27.7445238,39.6507317 28.2127381,39.2318699 L65.3057143,8.86439024 C65.8259524,8.44552846 66.5542857,8.49788618 66.9704762,9.02146341 C67.3866667,9.54504065 67.282619,10.2780488 66.8144048,10.6969106 L29.7214286,41.0643902 C29.5133333,41.2214634 29.2532143,41.3261789 28.9930952,41.3261789 Z"></path>
                        <path d="M1.78464286,41.3261789 C1.42047619,41.3261789 1.10833333,41.1691057 0.848214286,40.9073171 C0.43202381,40.3837398 0.536071429,39.6507317 1.00428571,39.2318699 L47.8777381,0.853658537 C48.3979762,0.434796748 49.1263095,0.487154472 49.5425,1.01073171 C49.9586905,1.53430894 49.8546429,2.26731707 49.3864286,2.68617886 L2.51297619,41.0643902 C2.30488095,41.2214634 2.0447619,41.3261789 1.78464286,41.3261789 Z"></path>
                    </g>
                    <path d="M443.260481,361 L403.338055,361 C402.659634,361 402.137773,360.480519 402.137773,359.805195 L402.137773,347.38961 L390.865558,347.38961 L390.865558,359.805195 C390.865558,360.480519 390.343696,361 389.665276,361 L349.74285,361 C349.06443,361 348.542568,360.480519 348.542568,359.805195 L348.542568,347.38961 L337.270354,347.38961 L337.270354,359.805195 C337.270354,360.480519 336.748492,361 336.070072,361 L296.147646,361 C295.469225,361 294.947364,360.480519 294.947364,359.805195 L294.947364,347.38961 L283.675149,347.38961 L283.675149,359.805195 C283.675149,360.480519 283.153287,361 282.474867,361 L242.552441,361 C241.874021,361 241.352159,360.480519 241.352159,359.805195 L241.352159,347.38961 L230.079945,347.38961 L230.079945,359.805195 C230.079945,360.480519 229.558083,361 228.879663,361 L188.957237,361 C188.278816,361 187.756954,360.480519 187.756954,359.805195 L187.756954,347.38961 L176.48474,347.38961 L176.48474,359.805195 C176.48474,360.480519 175.962878,361 175.284458,361 L135.362032,361 C134.683612,361 134.16175,360.480519 134.16175,359.805195 L134.16175,347.38961 L124.037631,347.38961 C123.359211,347.38961 122.837349,346.87013 122.837349,346.194805 C122.837349,345.519481 123.359211,345 124.037631,345 L135.362032,345 C136.040452,345 136.562314,345.519481 136.562314,346.194805 L136.562314,358.61039 L174.084176,358.61039 L174.084176,346.194805 C174.084176,345.519481 174.606038,345 175.284458,345 L188.957237,345 C189.635657,345 190.157519,345.519481 190.157519,346.194805 L190.157519,358.61039 L227.731567,358.61039 L227.731567,346.194805 C227.731567,345.519481 228.253428,345 228.931849,345 L242.604627,345 C243.283048,345 243.804909,345.519481 243.804909,346.194805 L243.804909,358.61039 L281.326771,358.61039 L281.326771,346.194805 C281.326771,345.519481 281.848633,345 282.527053,345 L296.199832,345 C296.878252,345 297.400114,345.519481 297.400114,346.194805 L297.400114,358.61039 L334.921976,358.61039 L334.921976,346.194805 C334.921976,345.519481 335.443837,345 336.122258,345 L349.795036,345 C350.473457,345 350.995318,345.519481 350.995318,346.194805 L350.995318,358.61039 L388.51718,358.61039 L388.51718,346.194805 C388.51718,345.519481 389.039042,345 389.717462,345 L403.390241,345 C404.068661,345 404.590523,345.519481 404.590523,346.194805 L404.590523,358.61039 L442.112385,358.61039 L442.112385,346.194805 C442.112385,345.519481 442.634246,345 443.312667,345 L454.637067,345 C455.315488,345 455.837349,345.519481 455.837349,346.194805 C455.837349,346.87013 455.315488,347.38961 454.637067,347.38961 L444.512949,347.38961 L444.512949,359.805195 C444.408576,360.480519 443.886715,361 443.260481,361 Z" id="路徑"></path>
                    <g transform="translate(118.837349, 373.000000)" id="路徑">
                        <path d="M10.3462886,11.75 C4.76844776,11.75 0.23319403,7.4 0.23319403,2.05 C0.23319403,1.4 0.754487562,0.9 1.43216915,0.9 C2.10985075,0.9 2.63114428,1.4 2.63114428,2.05 C2.63114428,6.1 6.07168159,9.45 10.3462886,9.45 C14.5687662,9.45 18.0614328,6.15 18.0614328,2.05 C18.0614328,1.4 18.5827264,0.9 19.260408,0.9 C19.9380896,0.9 20.4593831,1.4 20.4593831,2.05 C20.4072537,7.45 15.872,11.75 10.3462886,11.75 Z"></path>
                        <path d="M28.122398,11.75 C22.5445572,11.75 18.0093035,7.4 18.0093035,2.05 C18.0093035,1.4 18.530597,0.9 19.2082786,0.9 C19.8859602,0.9 20.4072537,1.4 20.4072537,2.05 C20.4072537,6.1 23.847791,9.45 28.122398,9.45 C32.397005,9.45 35.8375423,6.15 35.8375423,2.05 C35.8375423,1.4 36.3588358,0.9 37.0365174,0.9 C37.714199,0.9 38.2354925,1.4 38.2354925,2.05 C38.2354925,7.45 33.7002388,11.75 28.122398,11.75 Z"></path>
                        <path d="M45.9506368,11.75 C40.372796,11.75 35.8375423,7.4 35.8375423,2.05 C35.8375423,1.4 36.3588358,0.9 37.0365174,0.9 C37.714199,0.9 38.2354925,1.4 38.2354925,2.05 C38.2354925,6.1 41.6760299,9.45 45.9506368,9.45 C50.2252438,9.45 53.6657811,6.15 53.6657811,2.05 C53.6657811,1.4 54.1870746,0.9 54.8647562,0.9 C55.5424378,0.9 56.0637313,1.4 56.0637313,2.05 C56.011602,7.45 51.4763483,11.75 45.9506368,11.75 Z"></path>
                        <path d="M63.7267463,11.75 C58.1489055,11.75 53.6136517,7.4 53.6136517,2.05 C53.6136517,1.4 54.1349453,0.9 54.8126269,0.9 C55.4903085,0.9 56.011602,1.4 56.011602,2.05 C56.011602,6.1 59.4521393,9.45 63.7267463,9.45 C67.9492239,9.45 71.4418905,6.15 71.4418905,2.05 C71.4418905,1.4 71.9631841,0.9 72.6408657,0.9 C73.3185473,0.9 73.8398408,1.4 73.8398408,2.05 C73.8398408,7.45 69.3045871,11.75 63.7267463,11.75 Z"></path>
                        <path d="M81.5549851,11.75 C75.9771443,11.75 71.4418905,7.4 71.4418905,2.05 C71.4418905,1.4 71.9631841,0.9 72.6408657,0.9 C73.3185473,0.9 73.8398408,1.4 73.8398408,2.05 C73.8398408,6.1 77.2803781,9.45 81.5549851,9.45 C85.829592,9.45 89.2701294,6.15 89.2701294,2.05 C89.2701294,1.4 89.7914229,0.9 90.4691045,0.9 C91.1467861,0.9 91.6680796,1.4 91.6680796,2.05 C91.6159502,7.45 87.0806965,11.75 81.5549851,11.75 Z"></path>
                        <path d="M99.3310945,11.75 C93.7532537,11.75 89.218,7.4 89.218,2.05 C89.218,1.4 89.7392935,0.9 90.4169751,0.9 C91.0946567,0.9 91.6159502,1.4 91.6159502,2.05 C91.6159502,6.1 95.0564876,9.45 99.3310945,9.45 C103.553572,9.45 107.046239,6.15 107.046239,2.05 C107.046239,1.4 107.567532,0.9 108.245214,0.9 C108.922896,0.9 109.444189,1.4 109.444189,2.05 C109.444189,7.45 104.908935,11.75 99.3310945,11.75 Z"></path>
                        <path d="M117.159333,11.75 C111.581493,11.75 107.046239,7.4 107.046239,2.05 C107.046239,1.4 107.567532,0.9 108.245214,0.9 C108.922896,0.9 109.444189,1.4 109.444189,2.05 C109.444189,6.1 112.884726,9.45 117.159333,9.45 C121.43394,9.45 124.874478,6.15 124.874478,2.05 C124.874478,1.4 125.395771,0.9 126.073453,0.9 C126.751134,0.9 127.272428,1.4 127.272428,2.05 C127.220299,7.45 122.685045,11.75 117.159333,11.75 Z"></path>
                        <path d="M134.935443,11.75 C129.357602,11.75 124.822348,7.4 124.822348,2.05 C124.822348,1.4 125.343642,0.9 126.021323,0.9 C126.699005,0.9 127.220299,1.4 127.220299,2.05 C127.220299,6.1 130.660836,9.45 134.935443,9.45 C139.21005,9.45 142.650587,6.15 142.650587,2.05 C142.650587,1.4 143.171881,0.9 143.849562,0.9 C144.527244,0.9 145.048537,1.4 145.048537,2.05 C145.048537,7.45 140.513284,11.75 134.935443,11.75 Z"></path>
                        <path d="M152.763682,11.75 C147.185841,11.75 142.650587,7.4 142.650587,2.05 C142.650587,1.4 143.171881,0.9 143.849562,0.9 C144.527244,0.9 145.048537,1.4 145.048537,2.05 C145.048537,6.1 148.489075,9.45 152.763682,9.45 C156.986159,9.45 160.478826,6.15 160.478826,2.05 C160.478826,1.4 161.000119,0.9 161.677801,0.9 C162.355483,0.9 162.876776,1.4 162.876776,2.05 C162.824647,7.45 158.289393,11.75 152.763682,11.75 Z"></path>
                        <path d="M170.539791,11.75 C164.96195,11.75 160.426697,7.4 160.426697,2.05 C160.426697,1.4 160.94799,0.9 161.625672,0.9 C162.303353,0.9 162.824647,1.4 162.824647,2.05 C162.824647,6.1 166.265184,9.45 170.539791,9.45 C174.814398,9.45 178.254935,6.15 178.254935,2.05 C178.254935,1.4 178.776229,0.9 179.45391,0.9 C180.131592,0.9 180.652886,1.4 180.652886,2.05 C180.652886,7.45 176.117632,11.75 170.539791,11.75 Z"></path>
                        <path d="M188.3159,11.75 C182.73806,11.75 178.202806,7.4 178.202806,2.05 C178.202806,1.4 178.7241,0.9 179.401781,0.9 C180.079463,0.9 180.600756,1.4 180.600756,2.05 C180.600756,6.1 184.041294,9.45 188.3159,9.45 C192.590507,9.45 196.031045,6.15 196.031045,2.05 C196.031045,1.4 196.552338,0.9 197.23002,0.9 C197.907701,0.9 198.428995,1.4 198.428995,2.05 C198.428995,7.45 193.893741,11.75 188.3159,11.75 Z"></path>
                        <path d="M206.144139,11.75 C200.566299,11.75 196.031045,7.4 196.031045,2.05 C196.031045,1.4 196.552338,0.9 197.23002,0.9 C197.907701,0.9 198.428995,1.4 198.428995,2.05 C198.428995,6.1 201.869532,9.45 206.144139,9.45 C210.418746,9.45 213.859284,6.15 213.859284,2.05 C213.859284,1.4 214.380577,0.9 215.058259,0.9 C215.73594,0.9 216.257234,1.4 216.257234,2.05 C216.257234,7.45 211.72198,11.75 206.144139,11.75 Z"></path>
                        <path d="M223.920249,11.75 C218.342408,11.75 213.807154,7.4 213.807154,2.05 C213.807154,1.4 214.328448,0.9 215.006129,0.9 C215.683811,0.9 216.205104,1.4 216.205104,2.05 C216.205104,6.1 219.645642,9.45 223.920249,9.45 C228.194856,9.45 231.635393,6.15 231.635393,2.05 C231.635393,1.4 232.156687,0.9 232.834368,0.9 C233.51205,0.9 234.033343,1.4 234.033343,2.05 C234.033343,7.45 229.49809,11.75 223.920249,11.75 Z"></path>
                        <path d="M241.748488,11.75 C236.170647,11.75 231.635393,7.4 231.635393,2.05 C231.635393,1.4 232.156687,0.9 232.834368,0.9 C233.51205,0.9 234.033343,1.4 234.033343,2.05 C234.033343,6.1 237.473881,9.45 241.748488,9.45 C245.970965,9.45 249.463632,6.15 249.463632,2.05 C249.463632,1.4 249.984925,0.9 250.662607,0.9 C251.340289,0.9 251.861582,1.4 251.861582,2.05 C251.861582,7.45 247.326328,11.75 241.748488,11.75 Z"></path>
                        <path d="M259.524597,11.75 C253.946756,11.75 249.411502,7.4 249.411502,2.05 C249.411502,1.4 249.932796,0.9 250.610478,0.9 C251.288159,0.9 251.809453,1.4 251.809453,2.05 C251.809453,6.1 255.24999,9.45 259.524597,9.45 C263.799204,9.45 267.239741,6.15 267.239741,2.05 C267.239741,1.4 267.761035,0.9 268.438716,0.9 C269.116398,0.9 269.637692,1.4 269.637692,2.05 C269.637692,7.45 265.102438,11.75 259.524597,11.75 Z"></path>
                        <path d="M277.352836,11.75 C271.774995,11.75 267.239741,7.4 267.239741,2.05 C267.239741,1.4 267.761035,0.9 268.438716,0.9 C269.116398,0.9 269.637692,1.4 269.637692,2.05 C269.637692,6.1 273.078229,9.45 277.352836,9.45 C281.627443,9.45 285.06798,6.15 285.06798,2.05 C285.06798,1.4 285.589274,0.9 286.266955,0.9 C286.944637,0.9 287.46593,1.4 287.46593,2.05 C287.46593,7.45 282.930677,11.75 277.352836,11.75 Z"></path>
                        <path d="M295.128945,11.75 C289.551104,11.75 285.015851,7.4 285.015851,2.05 C285.015851,1.4 285.537144,0.9 286.214826,0.9 C286.892507,0.9 287.413801,1.4 287.413801,2.05 C287.413801,6.1 290.854338,9.45 295.128945,9.45 C299.403552,9.45 302.84409,6.15 302.84409,2.05 C302.84409,1.4 303.365383,0.9 304.043065,0.9 C304.720746,0.9 305.24204,1.4 305.24204,2.05 C305.24204,7.45 300.706786,11.75 295.128945,11.75 Z"></path>
                        <path d="M312.957184,11.75 C307.379343,11.75 302.84409,7.4 302.84409,2.05 C302.84409,1.4 303.365383,0.9 304.043065,0.9 C304.720746,0.9 305.24204,1.4 305.24204,2.05 C305.24204,6.1 308.682577,9.45 312.957184,9.45 C317.231791,9.45 320.672328,6.15 320.672328,2.05 C320.672328,1.4 321.193622,0.9 321.871303,0.9 C322.548985,0.9 323.070279,1.4 323.070279,2.05 C323.070279,7.45 318.535025,11.75 312.957184,11.75 Z"></path>
                        <path d="M330.733294,11.75 C325.155453,11.75 320.620199,7.4 320.620199,2.05 C320.620199,1.4 321.141493,0.9 321.819174,0.9 C322.496856,0.9 323.018149,1.4 323.018149,2.05 C323.018149,6.1 326.458687,9.45 330.733294,9.45 C334.955771,9.45 338.448438,6.15 338.448438,2.05 C338.448438,1.4 338.969731,0.9 339.647413,0.9 C340.325095,0.9 340.846388,1.4 340.846388,2.05 C340.846388,7.45 336.311134,11.75 330.733294,11.75 Z"></path>
                    </g>
                    <g transform="translate(2.837349, 373.000000)" id="路徑">
                        <path d="M5.39392241,11.75 C4.03844828,11.75 2.73510776,11.5 1.48390086,11 C0.858297414,10.75 0.59762931,10.1 0.858297414,9.5 C1.11896552,8.9 1.79670259,8.65 2.42230603,8.9 C3.36071121,9.3 4.40338362,9.5 5.39392241,9.5 C9.66887931,9.5 13.1096983,6.2 13.1096983,2.1 C13.1096983,1.45 13.6310345,0.95 14.3087716,0.95 C14.9865086,0.95 15.5078448,1.45 15.5078448,2.1 C15.4557112,7.45 10.9200862,11.75 5.39392241,11.75 Z"></path>
                        <path d="M23.1714871,11.75 C17.5931897,11.75 13.0575647,7.4 13.0575647,2.05 C13.0575647,1.4 13.5789009,0.9 14.2566379,0.9 C14.934375,0.9 15.4557112,1.4 15.4557112,2.05 C15.4557112,6.1 18.8965302,9.45 23.1714871,9.45 C27.446444,9.45 30.8872629,6.15 30.8872629,2.05 C30.8872629,1.4 31.4085991,0.9 32.0863362,0.9 C32.7640733,0.9 33.2854095,1.4 33.2854095,2.05 C33.2854095,7.45 28.7497845,11.75 23.1714871,11.75 Z"></path>
                        <path d="M40.9490517,11.75 C35.3707543,11.75 30.8351293,7.4 30.8351293,2.05 C30.8351293,1.4 31.3564655,0.9 32.0342026,0.9 C32.7119397,0.9 33.2332759,1.4 33.2332759,2.05 C33.2332759,6.1 36.6740948,9.45 40.9490517,9.45 C45.2240086,9.45 48.6648276,6.15 48.6648276,2.05 C48.6648276,1.4 49.1861638,0.9 49.8639009,0.9 C50.5416379,0.9 51.0629741,1.4 51.0629741,2.05 C51.0629741,7.45 46.5273491,11.75 40.9490517,11.75 Z"></path>
                        <path d="M58.77875,11.75 C53.2004526,11.75 48.6648276,7.4 48.6648276,2.05 C48.6648276,1.4 49.1861638,0.9 49.8639009,0.9 C50.5416379,0.9 51.0629741,1.4 51.0629741,2.05 C51.0629741,6.1 54.5037931,9.45 58.77875,9.45 C63.0537069,9.45 66.4945259,6.15 66.4945259,2.05 C66.4945259,1.4 67.0158621,0.9 67.6935991,0.9 C68.3713362,0.9 68.8926724,1.4 68.8926724,2.05 C68.8926724,7.45 64.3570474,11.75 58.77875,11.75 Z"></path>
                        <path d="M76.5563147,11.75 C70.9780172,11.75 66.4423922,7.4 66.4423922,2.05 C66.4423922,1.4 66.9637284,0.9 67.6414655,0.9 C68.3192026,0.9 68.8405388,1.4 68.8405388,2.05 C68.8405388,6.1 72.2813578,9.45 76.5563147,9.45 C80.7791379,9.45 84.2720905,6.15 84.2720905,2.05 C84.2720905,1.4 84.7934267,0.9 85.4711638,0.9 C86.1489009,0.9 86.6702371,1.4 86.6702371,2.05 C86.6702371,7.45 82.1346121,11.75 76.5563147,11.75 Z"></path>
                        <path d="M94.3860129,11.75 C88.8077155,11.75 84.2720905,7.4 84.2720905,2.05 C84.2720905,1.4 84.7934267,0.9 85.4711638,0.9 C86.1489009,0.9 86.6702371,1.4 86.6702371,2.05 C86.6702371,6.1 90.111056,9.45 94.3860129,9.45 C98.6609698,9.45 102.101789,6.15 102.101789,2.05 C102.101789,1.4 102.623125,0.9 103.300862,0.9 C103.978599,0.9 104.499935,1.4 104.499935,2.05 C104.499935,7.45 99.9643103,11.75 94.3860129,11.75 Z"></path>
                        <path d="M112.163578,11.75 C106.58528,11.75 102.049655,7.4 102.049655,2.05 C102.049655,1.4 102.570991,0.9 103.248728,0.9 C103.926466,0.9 104.447802,1.4 104.447802,2.05 C104.447802,6.1 107.888621,9.45 112.163578,9.45 C113.414784,9.45 114.613858,9.15 115.708664,8.6 C116.282134,8.3 117.012004,8.5 117.324806,9.1 C117.637608,9.65 117.429073,10.35 116.80347,10.65 C115.447996,11.4 113.831853,11.75 112.163578,11.75 Z"></path>
                    </g>
                    <path d="M458.688877,370.65 L121.038025,370.65 C120.359382,370.65 119.837349,370.15 119.837349,369.5 C119.837349,368.85 120.359382,368.35 121.038025,368.35 L458.636674,368.35 C459.315317,368.35 459.837349,368.85 459.837349,369.5 C459.837349,370.15 459.315317,370.65 458.688877,370.65 Z" id="路徑"></path>
                    <path d="M81.6224634,337 C80.9357888,337 80.4075775,336.488055 80.4075775,335.822526 L80.4075775,324.354949 L41.2671213,324.354949 L41.2671213,335.822526 C41.2671213,336.488055 40.73891,337 40.0522354,337 C39.3655607,337 38.8373494,336.488055 38.8373494,335.822526 L38.8373494,323.177474 C38.8373494,322.511945 39.3655607,322 40.0522354,322 L81.6224634,322 C82.3091381,322 82.8373494,322.511945 82.8373494,323.177474 L82.8373494,335.822526 C82.8373494,336.43686 82.3091381,337 81.6224634,337 Z" id="路徑"></path>
                    <path d="M77.7300684,325 C77.0528473,325 76.531908,324.463415 76.531908,323.765854 C76.531908,320.22439 70.0722605,316.414634 60.3827891,316.414634 C50.7454117,316.414634 44.2336703,320.22439 44.2336703,323.765854 C44.2336703,324.463415 43.7127309,325 43.0355098,325 C42.3582887,325 41.8373494,324.463415 41.8373494,323.765854 C41.8373494,318.292683 49.9640028,314 60.3306952,314 C70.6973876,314 78.824041,318.292683 78.824041,323.765854 C78.9282289,324.463415 78.4072896,325 77.7300684,325 Z" id="路徑"></path>
                    <path d="M47.3373494,319 C46.6873494,319 46.1873494,318.479927 46.1873494,317.803832 L46.1873494,263.196168 C46.1873494,262.520073 46.6873494,262 47.3373494,262 C47.9873494,262 48.4873494,262.520073 48.4873494,263.196168 L48.4873494,317.803832 C48.4873494,318.479927 47.9373494,319 47.3373494,319 Z" id="路徑"></path>
                    <path d="M74.3373494,320 C73.6873494,320 73.1873494,319.479167 73.1873494,318.802083 L73.1873494,296.197917 C73.1873494,295.520833 73.6873494,295 74.3373494,295 C74.9873494,295 75.4873494,295.520833 75.4873494,296.197917 L75.4873494,318.802083 C75.4873494,319.479167 74.9873494,320 74.3373494,320 Z" id="路徑"></path>
                    <path d="M361.027005,129 C360.354591,129 359.837349,128.503311 359.837349,127.857616 C359.837349,127.211921 360.354591,126.715232 361.027005,126.715232 C364.027005,126.715232 366.458039,124.380795 366.458039,121.5 C366.458039,118.619205 364.027005,116.284768 361.027005,116.284768 C360.354591,116.284768 359.837349,115.788079 359.837349,115.142384 C359.837349,114.496689 360.354591,114 361.027005,114 C365.320108,114 368.837349,117.377483 368.837349,121.5 C368.837349,125.672185 365.320108,129 361.027005,129 Z" id="路徑"></path>
                    <path d="M361.013068,137 C360.348532,137 359.837349,136.465517 359.837349,135.77069 C359.837349,135.075862 360.348532,134.541379 361.013068,134.541379 C367.914027,134.541379 373.485912,128.715517 373.485912,121.5 C373.485912,114.284483 367.914027,108.458621 361.013068,108.458621 C360.348532,108.458621 359.837349,107.924138 359.837349,107.22931 C359.837349,106.534483 360.348532,106 361.013068,106 C369.191982,106 375.837349,112.948276 375.837349,121.5 C375.837349,130.051724 369.191982,137 361.013068,137 Z" id="路徑"></path>
                    <path d="M219.647694,129 C215.354591,129 211.837349,125.622517 211.837349,121.5 C211.837349,117.377483 215.354591,114 219.647694,114 C220.320108,114 220.837349,114.496689 220.837349,115.142384 C220.837349,115.788079 220.320108,116.284768 219.647694,116.284768 C216.647694,116.284768 214.21666,118.619205 214.21666,121.5 C214.21666,124.380795 216.647694,126.715232 219.647694,126.715232 C220.320108,126.715232 220.837349,127.211921 220.837349,127.857616 C220.785625,128.503311 220.268384,129 219.647694,129 Z" id="路徑"></path>
                    <path d="M219.661631,137 C211.482717,137 204.837349,130.051724 204.837349,121.5 C204.837349,112.948276 211.482717,106 219.661631,106 C220.326167,106 220.837349,106.534483 220.837349,107.22931 C220.837349,107.924138 220.326167,108.458621 219.661631,108.458621 C212.760672,108.458621 207.188787,114.284483 207.188787,121.5 C207.188787,128.715517 212.81179,134.541379 219.661631,134.541379 C220.326167,134.541379 220.837349,135.075862 220.837349,135.77069 C220.786231,136.412069 220.275049,137 219.661631,137 Z" id="路徑"></path>
                    <path d="M114.68506,370.65 L8.03855876,370.65 C7.35961434,370.65 6.8373494,370.15 6.8373494,369.5 C6.8373494,368.85 7.35961434,368.35 8.03855876,368.35 L114.632833,368.35 C115.311778,368.35 115.834042,368.85 115.834042,369.5 C115.886269,370.15 115.311778,370.65 114.68506,370.65 Z" id="路徑"></path>
                    <path d="M417.811335,176 C404.023614,176 392.837349,164.792354 392.837349,150.97828 L392.837349,117.198957 C392.837349,116.521286 393.357641,116 394.03402,116 C405.896663,116 416.250461,122.411816 421.921637,131.951347 C423.898744,122.828844 431.96326,116 441.640679,116 C442.317058,116 442.837349,116.521286 442.837349,117.198957 L442.837349,150.97828 C442.837349,164.740226 431.599056,176 417.811335,176 Z M395.23069,118.397915 L395.23069,150.926151 C395.23069,163.437011 405.376371,173.602085 417.863364,173.602085 C430.350357,173.602085 440.496038,163.437011 440.496038,150.926151 L440.496038,118.397915 C431.390939,119.023458 424.158889,126.477845 423.898744,135.704605 C425.563676,139.614248 426.500201,143.940921 426.500201,148.476108 C426.500201,149.153779 425.979909,149.675065 425.30353,149.675065 C424.627152,149.675065 424.10686,149.153779 424.10686,148.476108 C424.10686,144.410078 423.274394,140.552563 421.817578,137.007819 C421.609462,136.799305 421.505404,136.538662 421.453374,136.225891 C416.92684,126.060817 406.937245,118.867072 395.23069,118.397915 Z" id="形狀"></path>
                    <path d="M426.657862,126 C425.991196,126 425.478375,125.485861 425.478375,124.817481 C425.478375,116.128535 418.709144,108.982005 410.196324,108.365039 L410.196324,121.321337 C410.196324,121.989717 409.683503,122.503856 409.016837,122.503856 C408.35017,122.503856 407.837349,121.989717 407.837349,121.321337 L407.837349,107.182519 C407.837349,106.514139 408.35017,106 409.016837,106 C419.375811,106 427.837349,114.48329 427.837349,124.868895 C427.837349,125.485861 427.324529,126 426.657862,126 Z" id="路徑"></path>
                    <path d="M426.613921,126 C425.95123,126 425.441468,125.487179 425.441468,124.820513 L425.441468,108.410256 C422.994611,108.564103 420.649707,109.282051 418.559683,110.512821 C417.998945,110.820513 417.285278,110.615385 416.979421,110.051282 C416.673564,109.487179 416.877469,108.769231 417.438207,108.461538 C420.241897,106.871795 423.402421,106 426.664897,106 C427.327587,106 427.837349,106.512821 427.837349,107.179487 L427.837349,124.820513 C427.786373,125.487179 427.276611,126 426.613921,126 Z" id="路徑"></path>
                    <rect id="矩形" x="415.837349" y="175" width="5" height="89"></rect>
                    <path d="M425.039327,245 C424.359948,245 423.837349,244.477401 423.837349,243.798023 C423.837349,224.043785 439.881135,208 459.635372,208 C460.314751,208 460.837349,208.522599 460.837349,209.201977 C460.837349,209.881356 460.314751,210.403955 459.635372,210.403955 C441.187632,210.403955 426.189044,225.402542 426.189044,243.850282 C426.241304,244.477401 425.718705,245 425.039327,245 Z" id="路徑"></path>
                    <path d="M410.624259,231 C410.307801,231 409.991343,230.894578 409.780371,230.631024 L377.185167,198.055723 C376.815966,197.686747 376.763223,197.212349 376.921452,196.737952 C377.132424,196.263554 377.554369,196 378.029056,196 C396.700095,196 411.837349,211.180723 411.837349,229.787651 C411.837349,230.262048 411.520891,230.736446 411.098947,230.894578 C410.940718,231 410.782488,231 410.624259,231 Z M381.088153,198.582831 L409.305683,226.783133 C407.828878,211.865964 395.961692,200.006024 381.088153,198.582831 Z" id="形狀"></path>
                    <path d="M401.337349,149 C400.687349,149 400.187349,148.477612 400.187349,147.798507 L400.187349,136.201493 C400.187349,135.522388 400.687349,135 401.337349,135 C401.987349,135 402.487349,135.522388 402.487349,136.201493 L402.487349,147.798507 C402.487349,148.477612 401.987349,149 401.337349,149 Z" id="路徑"></path>
                    <path d="M409.337349,149 C408.687349,149 408.187349,148.477612 408.187349,147.798507 L408.187349,136.201493 C408.187349,135.522388 408.687349,135 409.337349,135 C409.987349,135 410.487349,135.522388 410.487349,136.201493 L410.487349,147.798507 C410.487349,148.477612 409.937349,149 409.337349,149 Z" id="路徑"></path>
                    <path d="M418.337349,149 C417.687349,149 417.187349,148.477612 417.187349,147.798507 L417.187349,136.201493 C417.187349,135.522388 417.687349,135 418.337349,135 C418.987349,135 419.487349,135.522388 419.487349,136.201493 L419.487349,147.798507 C419.487349,148.477612 418.987349,149 418.337349,149 Z" id="路徑"></path>
                    <path d="M433.337349,149 C432.687349,149 432.187349,148.477612 432.187349,147.798507 L432.187349,136.201493 C432.187349,135.522388 432.687349,135 433.337349,135 C433.987349,135 434.487349,135.522388 434.487349,136.201493 L434.487349,147.798507 C434.487349,148.477612 433.987349,149 433.337349,149 Z" id="路徑"></path>
                    <path d="M139.837349,70 C134.35017,70 129.837349,65.5384615 129.837349,60 C129.837349,54.4615385 134.298888,50 139.837349,50 C145.375811,50 149.837349,54.5128205 149.837349,60 C149.837349,65.4871795 145.375811,70 139.837349,70 Z M139.837349,52.3589744 C135.632221,52.3589744 132.196324,55.7948718 132.196324,60 C132.196324,64.2051282 135.632221,67.6410256 139.837349,67.6410256 C144.042478,67.6410256 147.478375,64.2051282 147.478375,60 C147.478375,55.7948718 144.042478,52.3589744 139.837349,52.3589744 Z" id="形狀"></path>
                    <path d="M140.337349,42 C137.309826,42 134.837349,39.5275229 134.837349,36.5 C134.837349,33.4724771 137.309826,31 140.337349,31 C143.364872,31 145.837349,33.4724771 145.837349,36.5 C145.837349,39.5275229 143.364872,42 140.337349,42 Z M140.337349,33.3211009 C138.571294,33.3211009 137.15845,34.733945 137.15845,36.5 C137.15845,38.266055 138.571294,39.6788991 140.337349,39.6788991 C142.103404,39.6788991 143.516248,38.266055 143.516248,36.5 C143.516248,34.733945 142.103404,33.3211009 140.337349,33.3211009 Z" id="形狀"></path>
                    <path d="M417.837349,96 C412.35017,96 407.837349,91.5384615 407.837349,86 C407.837349,80.5128205 412.298888,76 417.837349,76 C423.375811,76 427.837349,80.4615385 427.837349,86 C427.837349,91.4871795 423.324529,96 417.837349,96 Z M417.837349,78.3589744 C413.632221,78.3589744 410.196324,81.7948718 410.196324,86 C410.196324,90.2051282 413.632221,93.6410256 417.837349,93.6410256 C422.042478,93.6410256 425.478375,90.2051282 425.478375,86 C425.478375,81.7948718 422.042478,78.3589744 417.837349,78.3589744 Z" id="形狀"></path>
                    <path d="M418.337349,68 C415.309826,68 412.837349,65.5275229 412.837349,62.5 C412.837349,59.4724771 415.309826,57 418.337349,57 C421.364872,57 423.837349,59.4724771 423.837349,62.5 C423.837349,65.5275229 421.364872,68 418.337349,68 Z M418.337349,59.3211009 C416.571294,59.3211009 415.15845,60.733945 415.15845,62.5 C415.15845,64.266055 416.571294,65.6788991 418.337349,65.6788991 C420.103404,65.6788991 421.516248,64.266055 421.516248,62.5 C421.516248,60.7844037 420.103404,59.3211009 418.337349,59.3211009 Z" id="形狀"></path>
                    <circle id="橢圓形" cx="322.337349" cy="111.5" r="4.5"></circle>
                    <circle id="橢圓形" cx="258.337349" cy="111.5" r="4.5"></circle>
                    <path d="M139.337349,193 C138.659857,193 138.138709,192.476909 138.138709,191.79689 C138.138709,139.33082 106.348679,138.70311 106.03599,138.70311 C105.358497,138.70311 104.837349,138.180019 104.837349,137.5 C104.837349,136.819981 105.358497,136.29689 106.03599,136.29689 C137.773905,136.29689 138.138709,83.7262017 138.138709,83.2031103 C138.138709,82.5230914 138.659857,82 139.337349,82 C140.014842,82 140.53599,82.5230914 140.53599,83.2031103 C140.53599,135.66918 172.32602,136.29689 172.638709,136.29689 C173.316201,136.29689 173.837349,136.819981 173.837349,137.5 C173.837349,138.180019 173.316201,138.70311 172.638709,138.70311 C140.900794,138.70311 140.53599,191.273798 140.53599,191.79689 C140.53599,192.476909 140.014842,193 139.337349,193 Z M113.227833,137.813855 C121.931005,140.795476 135.793543,149.792648 139.545809,176.888784 C141.94309,162.346843 148.301096,141.78935 165.394751,137.238454 C156.691579,134.256833 142.829041,125.259661 139.076775,98.163525 C136.731609,112.705467 130.321488,133.262959 113.227833,137.813855 Z" id="形狀"></path>
                    <path d="M156.362962,354 C155.697038,354 155.184788,353.471429 155.184788,352.784286 C155.184788,337.032857 146.425323,336.715714 146.015523,336.715714 C145.349599,336.715714 144.837349,336.187143 144.837349,335.5 C144.837349,334.865714 145.349599,334.284286 145.964298,334.284286 L145.964298,334.284286 C145.964298,334.284286 145.964298,334.284286 145.964298,334.284286 L145.964298,334.284286 L145.964298,334.284286 L145.964298,334.284286 C145.964298,334.284286 145.964298,334.284286 145.964298,334.284286 C155.031113,334.284286 155.133563,318.374286 155.133563,318.215714 C155.133563,317.528571 155.645813,317 156.311737,317 C156.977661,317 157.489911,317.528571 157.489911,318.215714 C157.489911,333.967143 166.249376,334.284286 166.659176,334.284286 C167.3251,334.284286 167.837349,334.812857 167.837349,335.5 C167.837349,336.134286 167.3251,336.715714 166.710401,336.715714 L166.710401,336.715714 C166.710401,336.715714 166.710401,336.715714 166.710401,336.715714 L166.710401,336.715714 L166.710401,336.715714 L166.710401,336.715714 C166.710401,336.715714 166.710401,336.715714 166.710401,336.715714 C157.69481,336.715714 157.541136,352.625714 157.541136,352.784286 C157.541136,353.471429 157.028886,354 156.362962,354 Z M150.369643,335.658571 C152.572316,336.927143 155.031113,339.358571 156.414187,344.062857 C157.387461,340.574286 159.180334,337.032857 162.35628,335.288571 C160.153608,334.02 157.69481,331.588571 156.311737,326.884286 C155.338463,330.372857 153.54559,333.967143 150.369643,335.658571 Z" id="形狀"></path>
                    <path d="M179.337349,296 C178.703064,296 178.121635,295.487751 178.121635,294.873051 C178.121635,294.873051 178.121635,294.873051 178.121635,294.873051 L178.121635,294.873051 L178.121635,294.873051 C178.121635,294.873051 178.121635,294.873051 178.121635,294.873051 L178.121635,294.873051 C178.121635,294.873051 178.121635,294.873051 178.121635,294.873051 L178.121635,294.873051 C178.121635,294.873051 178.121635,294.873051 178.121635,294.873051 L178.121635,294.873051 C178.121635,294.873051 178.121635,294.873051 178.121635,294.873051 C178.121635,285.806236 162.211635,285.703786 162.053064,285.703786 C161.365921,285.703786 160.837349,285.191537 160.837349,284.525612 C160.837349,283.859688 161.365921,283.347439 162.053064,283.347439 C177.804492,283.347439 178.121635,274.587973 178.121635,274.178174 C178.121635,273.512249 178.650207,273 179.337349,273 C179.971635,273 180.553064,273.512249 180.553064,274.126949 C180.553064,274.126949 180.553064,274.126949 180.553064,274.126949 L180.553064,274.126949 L180.553064,274.126949 C180.553064,274.126949 180.553064,274.126949 180.553064,274.126949 L180.553064,274.126949 C180.553064,274.126949 180.553064,274.126949 180.553064,274.126949 L180.553064,274.126949 C180.553064,274.126949 180.553064,274.126949 180.553064,274.126949 L180.553064,274.126949 C180.553064,274.126949 180.553064,274.126949 180.553064,274.126949 C180.553064,283.193764 196.463064,283.296214 196.621635,283.296214 C197.308778,283.296214 197.837349,283.808463 197.837349,284.474388 C197.837349,285.140312 197.308778,285.652561 196.621635,285.652561 C180.870207,285.652561 180.553064,294.412027 180.553064,294.821826 C180.500207,295.487751 179.971635,296 179.337349,296 Z M170.721635,284.576837 C174.210207,285.550111 177.751635,287.342984 179.495921,290.518931 C180.764492,288.316258 183.195921,285.857461 187.900207,284.474388 C184.411635,283.501114 180.870207,281.708241 179.125921,278.532294 C177.857349,280.734967 175.425921,283.193764 170.721635,284.576837 Z" id="形狀"></path>
                    <path d="M234.337349,296 C233.703064,296 233.121635,295.487751 233.121635,294.873051 C233.121635,294.873051 233.121635,294.873051 233.121635,294.873051 L233.121635,294.873051 L233.121635,294.873051 C233.121635,294.873051 233.121635,294.873051 233.121635,294.873051 L233.121635,294.873051 C233.121635,294.873051 233.121635,294.873051 233.121635,294.873051 L233.121635,294.873051 C233.121635,294.873051 233.121635,294.873051 233.121635,294.873051 L233.121635,294.873051 C233.121635,294.873051 233.121635,294.873051 233.121635,294.873051 C233.121635,285.806236 217.211635,285.703786 217.053064,285.703786 C216.365921,285.703786 215.837349,285.191537 215.837349,284.525612 C215.837349,283.859688 216.365921,283.347439 217.053064,283.347439 C232.804492,283.347439 233.121635,274.587973 233.121635,274.178174 C233.121635,273.512249 233.650207,273 234.337349,273 C234.971635,273 235.553064,273.512249 235.553064,274.126949 C235.553064,274.126949 235.553064,274.126949 235.553064,274.126949 L235.553064,274.126949 L235.553064,274.126949 C235.553064,274.126949 235.553064,274.126949 235.553064,274.126949 L235.553064,274.126949 C235.553064,274.126949 235.553064,274.126949 235.553064,274.126949 L235.553064,274.126949 C235.553064,274.126949 235.553064,274.126949 235.553064,274.126949 L235.553064,274.126949 C235.553064,274.126949 235.553064,274.126949 235.553064,274.126949 C235.553064,283.193764 251.463064,283.296214 251.621635,283.296214 C252.308778,283.296214 252.837349,283.808463 252.837349,284.474388 C252.837349,285.140312 252.308778,285.652561 251.621635,285.652561 C235.870207,285.652561 235.553064,294.412027 235.553064,294.821826 C235.553064,295.487751 235.024492,296 234.337349,296 Z M225.774492,284.576837 C229.263064,285.550111 232.804492,287.342984 234.548778,290.518931 C235.817349,288.316258 238.248778,285.857461 242.953064,284.474388 C239.464492,283.501114 235.923064,281.708241 234.178778,278.532294 C232.910207,280.734967 230.478778,283.193764 225.774492,284.576837 Z" id="形狀"></path>
                    <path d="M290.337349,296 C289.650207,296 289.121635,295.488889 289.121635,294.824444 C289.121635,285.777778 273.211635,285.675556 273.053064,285.675556 C272.365921,285.675556 271.837349,285.164444 271.837349,284.5 C271.837349,283.835556 272.365921,283.324444 273.053064,283.324444 C288.804492,283.324444 289.121635,274.584444 289.121635,274.175556 C289.121635,273.511111 289.650207,273 290.337349,273 C290.971635,273 291.553064,273.511111 291.553064,274.124444 C291.553064,274.124444 291.553064,274.124444 291.553064,274.124444 L291.553064,274.124444 L291.553064,274.124444 C291.553064,274.124444 291.553064,274.124444 291.553064,274.124444 L291.553064,274.124444 C291.553064,274.124444 291.553064,274.124444 291.553064,274.124444 L291.553064,274.124444 C291.553064,274.124444 291.553064,274.124444 291.553064,274.124444 L291.553064,274.124444 C291.553064,274.124444 291.553064,274.124444 291.553064,274.124444 C291.553064,283.171111 307.463064,283.273333 307.621635,283.273333 C308.308778,283.273333 308.837349,283.784444 308.837349,284.448889 C308.837349,285.113333 308.308778,285.624444 307.621635,285.624444 C291.711635,285.624444 291.553064,294.671111 291.553064,294.773333 C291.553064,295.488889 291.024492,296 290.337349,296 Z M281.774492,284.602222 C285.263064,285.573333 288.804492,287.362222 290.548778,290.531111 C291.817349,288.333333 294.248778,285.88 298.953064,284.5 C295.464492,283.528889 291.923064,281.74 290.178778,278.571111 C288.910207,280.768889 286.478778,283.222222 281.774492,284.602222 Z" id="形狀"></path>
                    <path d="M345.337349,296 C344.703064,296 344.121635,295.487751 344.121635,294.873051 C344.121635,294.873051 344.121635,294.873051 344.121635,294.873051 L344.121635,294.873051 L344.121635,294.873051 C344.121635,294.873051 344.121635,294.873051 344.121635,294.873051 L344.121635,294.873051 C344.121635,294.873051 344.121635,294.873051 344.121635,294.873051 L344.121635,294.873051 C344.121635,294.873051 344.121635,294.873051 344.121635,294.873051 L344.121635,294.873051 C344.121635,294.873051 344.121635,294.873051 344.121635,294.873051 C344.121635,285.806236 328.211635,285.703786 328.053064,285.703786 C327.365921,285.703786 326.837349,285.191537 326.837349,284.525612 C326.837349,283.859688 327.365921,283.347439 328.053064,283.347439 C343.804492,283.347439 344.121635,274.587973 344.121635,274.178174 C344.121635,273.512249 344.650207,273 345.337349,273 C345.971635,273 346.553064,273.512249 346.553064,274.126949 C346.553064,274.126949 346.553064,274.126949 346.553064,274.126949 L346.553064,274.126949 L346.553064,274.126949 C346.553064,274.126949 346.553064,274.126949 346.553064,274.126949 L346.553064,274.126949 C346.553064,274.126949 346.553064,274.126949 346.553064,274.126949 L346.553064,274.126949 C346.553064,274.126949 346.553064,274.126949 346.553064,274.126949 L346.553064,274.126949 C346.553064,274.126949 346.553064,274.126949 346.553064,274.126949 C346.553064,283.193764 362.463064,283.296214 362.621635,283.296214 C363.308778,283.296214 363.837349,283.808463 363.837349,284.474388 C363.837349,285.140312 363.308778,285.652561 362.621635,285.652561 C346.870207,285.652561 346.553064,294.412027 346.553064,294.821826 C346.553064,295.487751 345.971635,296 345.337349,296 Z M336.721635,284.576837 C340.210207,285.550111 343.751635,287.342984 345.495921,290.518931 C346.764492,288.316258 349.195921,285.857461 353.900207,284.474388 C350.411635,283.501114 346.870207,281.708241 345.125921,278.532294 C343.910207,280.734967 341.425921,283.193764 336.721635,284.576837 Z" id="形狀"></path>
                    <path d="M400.337349,296 C399.703064,296 399.121635,295.487751 399.121635,294.873051 C399.121635,294.873051 399.121635,294.873051 399.121635,294.873051 L399.121635,294.873051 L399.121635,294.873051 C399.121635,294.873051 399.121635,294.873051 399.121635,294.873051 L399.121635,294.873051 C399.121635,294.873051 399.121635,294.873051 399.121635,294.873051 L399.121635,294.873051 C399.121635,294.873051 399.121635,294.873051 399.121635,294.873051 L399.121635,294.873051 C399.121635,294.873051 399.121635,294.873051 399.121635,294.873051 C399.121635,285.806236 383.211635,285.703786 383.053064,285.703786 C382.365921,285.703786 381.837349,285.191537 381.837349,284.525612 C381.837349,283.859688 382.365921,283.347439 383.053064,283.347439 C398.804492,283.347439 399.121635,274.587973 399.121635,274.178174 C399.121635,273.512249 399.650207,273 400.337349,273 C400.971635,273 401.553064,273.512249 401.553064,274.126949 C401.553064,274.126949 401.553064,274.126949 401.553064,274.126949 L401.553064,274.126949 L401.553064,274.126949 C401.553064,274.126949 401.553064,274.126949 401.553064,274.126949 L401.553064,274.126949 C401.553064,274.126949 401.553064,274.126949 401.553064,274.126949 L401.553064,274.126949 C401.553064,274.126949 401.553064,274.126949 401.553064,274.126949 L401.553064,274.126949 C401.553064,274.126949 401.553064,274.126949 401.553064,274.126949 C401.553064,283.193764 417.463064,283.296214 417.621635,283.296214 C418.308778,283.296214 418.837349,283.808463 418.837349,284.474388 C418.837349,285.140312 418.308778,285.652561 417.621635,285.652561 C401.870207,285.652561 401.553064,294.412027 401.553064,294.821826 C401.553064,295.487751 401.024492,296 400.337349,296 Z M391.774492,284.576837 C395.263064,285.550111 398.804492,287.342984 400.548778,290.518931 C401.817349,288.316258 404.248778,285.857461 408.953064,284.474388 C405.464492,283.501114 401.923064,281.708241 400.178778,278.532294 C398.910207,280.734967 396.478778,283.193764 391.774492,284.576837 Z" id="形狀"></path>
                    <path d="M210.362962,354 C209.697038,354 209.184788,353.471429 209.184788,352.784286 C209.184788,337.032857 200.425323,336.715714 200.015523,336.715714 C199.349599,336.715714 198.837349,336.187143 198.837349,335.5 C198.837349,334.865714 199.349599,334.284286 199.964298,334.284286 L199.964298,334.284286 C199.964298,334.284286 199.964298,334.284286 199.964298,334.284286 L199.964298,334.284286 L199.964298,334.284286 L199.964298,334.284286 C199.964298,334.284286 199.964298,334.284286 199.964298,334.284286 C208.979888,334.284286 209.133563,318.374286 209.133563,318.215714 C209.133563,317.528571 209.645813,317 210.311737,317 C210.977661,317 211.489911,317.528571 211.489911,318.215714 C211.489911,333.967143 220.249376,334.284286 220.659176,334.284286 C221.3251,334.284286 221.837349,334.812857 221.837349,335.5 C221.837349,336.134286 221.3251,336.715714 220.710401,336.715714 L220.710401,336.715714 C220.710401,336.715714 220.710401,336.715714 220.710401,336.715714 L220.710401,336.715714 L220.710401,336.715714 L220.710401,336.715714 C220.710401,336.715714 220.710401,336.715714 220.710401,336.715714 C211.69481,336.715714 211.541136,352.625714 211.541136,352.784286 C211.541136,353.471429 210.977661,354 210.362962,354 Z M204.369643,335.658571 C206.572316,336.927143 209.031113,339.358571 210.414187,344.062857 C211.387461,340.574286 213.180334,337.032857 216.35628,335.288571 C214.153608,334.02 211.69481,331.588571 210.311737,326.884286 C209.287238,330.372857 207.54559,333.967143 204.369643,335.658571 Z" id="形狀"></path>
                    <path d="M263.362962,354 C262.697038,354 262.184788,353.471429 262.184788,352.784286 C262.184788,337.032857 253.425323,336.715714 253.015523,336.715714 C252.349599,336.715714 251.837349,336.187143 251.837349,335.5 C251.837349,334.865714 252.349599,334.284286 252.964298,334.284286 L252.964298,334.284286 C252.964298,334.284286 252.964298,334.284286 252.964298,334.284286 L252.964298,334.284286 L252.964298,334.284286 L252.964298,334.284286 C252.964298,334.284286 252.964298,334.284286 252.964298,334.284286 C261.979888,334.284286 262.133563,318.374286 262.133563,318.215714 C262.133563,317.528571 262.645813,317 263.311737,317 C263.977661,317 264.489911,317.528571 264.489911,318.215714 C264.489911,333.967143 273.249376,334.284286 273.659176,334.284286 C274.3251,334.284286 274.837349,334.812857 274.837349,335.5 C274.837349,336.134286 274.3251,336.715714 273.710401,336.715714 L273.710401,336.715714 C273.710401,336.715714 273.710401,336.715714 273.710401,336.715714 L273.710401,336.715714 L273.710401,336.715714 L273.710401,336.715714 C273.710401,336.715714 273.710401,336.715714 273.710401,336.715714 C264.643585,336.715714 264.541136,352.625714 264.541136,352.784286 C264.489911,353.471429 263.977661,354 263.362962,354 Z M257.318418,335.658571 C259.521091,336.927143 261.979888,339.358571 263.362962,344.062857 C264.336236,340.574286 266.129109,337.032857 269.305055,335.288571 C267.102383,334.02 264.643585,331.588571 263.260512,326.884286 C262.287238,330.372857 260.54559,333.967143 257.318418,335.658571 Z" id="形狀"></path>
                    <path d="M317.362962,354 C316.697038,354 316.184788,353.471429 316.184788,352.784286 C316.184788,337.032857 307.425323,336.715714 307.015523,336.715714 C306.349599,336.715714 305.837349,336.187143 305.837349,335.5 C305.837349,334.865714 306.349599,334.284286 306.964298,334.284286 L306.964298,334.284286 C306.964298,334.284286 306.964298,334.284286 306.964298,334.284286 L306.964298,334.284286 L306.964298,334.284286 L306.964298,334.284286 C306.964298,334.284286 306.964298,334.284286 306.964298,334.284286 C315.979888,334.284286 316.133563,318.374286 316.133563,318.215714 C316.133563,317.528571 316.645813,317 317.311737,317 C317.977661,317 318.489911,317.528571 318.489911,318.215714 C318.489911,333.967143 327.249376,334.284286 327.659176,334.284286 C328.3251,334.284286 328.837349,334.812857 328.837349,335.5 C328.837349,336.134286 328.3251,336.715714 327.710401,336.715714 L327.710401,336.715714 C327.710401,336.715714 327.710401,336.715714 327.710401,336.715714 L327.710401,336.715714 L327.710401,336.715714 L327.710401,336.715714 C327.710401,336.715714 327.710401,336.715714 327.710401,336.715714 C318.643585,336.715714 318.541136,352.625714 318.541136,352.784286 C318.541136,353.471429 318.028886,354 317.362962,354 Z M311.369643,335.658571 C313.572316,336.927143 316.031113,339.358571 317.414187,344.062857 C318.387461,340.574286 320.180334,337.032857 323.35628,335.288571 C321.153608,334.02 318.69481,331.588571 317.311737,326.884286 C316.338463,330.372857 314.54559,333.967143 311.369643,335.658571 Z" id="形狀"></path>
                    <path d="M370.362962,354 C369.697038,354 369.184788,353.471429 369.184788,352.784286 C369.184788,337.032857 360.425323,336.715714 360.015523,336.715714 C359.349599,336.715714 358.837349,336.187143 358.837349,335.5 C358.837349,334.865714 359.349599,334.284286 359.964298,334.284286 L359.964298,334.284286 C359.964298,334.284286 359.964298,334.284286 359.964298,334.284286 L359.964298,334.284286 L359.964298,334.284286 L359.964298,334.284286 C359.964298,334.284286 359.964298,334.284286 359.964298,334.284286 C369.031113,334.284286 369.133563,318.374286 369.133563,318.215714 C369.133563,317.528571 369.645813,317 370.311737,317 C370.977661,317 371.489911,317.528571 371.489911,318.215714 C371.489911,333.967143 380.249376,334.284286 380.659176,334.284286 C381.3251,334.284286 381.837349,334.812857 381.837349,335.5 C381.837349,336.134286 381.3251,336.715714 380.710401,336.715714 L380.710401,336.715714 C380.710401,336.715714 380.710401,336.715714 380.710401,336.715714 L380.710401,336.715714 L380.710401,336.715714 L380.710401,336.715714 C380.710401,336.715714 380.710401,336.715714 380.710401,336.715714 C371.69481,336.715714 371.541136,352.625714 371.541136,352.784286 C371.541136,353.471429 371.028886,354 370.362962,354 Z M364.369643,335.658571 C366.572316,336.927143 369.031113,339.358571 370.414187,344.062857 C371.387461,340.574286 373.180334,337.032857 376.35628,335.288571 C374.153608,334.02 371.69481,331.588571 370.311737,326.884286 C369.338463,330.372857 367.54559,333.967143 364.369643,335.658571 Z" id="形狀"></path>
                    <path d="M424.362962,354 C423.697038,354 423.184788,353.471429 423.184788,352.784286 C423.184788,337.032857 414.425323,336.715714 414.015523,336.715714 C413.349599,336.715714 412.837349,336.187143 412.837349,335.5 C412.837349,334.865714 413.349599,334.284286 413.964298,334.284286 L413.964298,334.284286 C413.964298,334.284286 413.964298,334.284286 413.964298,334.284286 L413.964298,334.284286 L413.964298,334.284286 L413.964298,334.284286 C413.964298,334.284286 413.964298,334.284286 413.964298,334.284286 C423.031113,334.284286 423.133563,318.374286 423.133563,318.215714 C423.133563,317.528571 423.645813,317 424.311737,317 C424.977661,317 425.489911,317.528571 425.489911,318.215714 C425.489911,333.967143 434.249376,334.284286 434.659176,334.284286 C435.3251,334.284286 435.837349,334.812857 435.837349,335.5 C435.837349,336.134286 435.3251,336.715714 434.710401,336.715714 L434.710401,336.715714 C434.710401,336.715714 434.710401,336.715714 434.710401,336.715714 L434.710401,336.715714 L434.710401,336.715714 L434.710401,336.715714 C434.710401,336.715714 434.710401,336.715714 434.710401,336.715714 C425.69481,336.715714 425.541136,352.625714 425.541136,352.784286 C425.541136,353.471429 425.028886,354 424.362962,354 Z M418.369643,335.658571 C420.572316,336.927143 423.031113,339.358571 424.414187,344.062857 C425.387461,340.574286 427.180334,337.032857 430.35628,335.288571 C428.153608,334.02 425.69481,331.588571 424.311737,326.884286 C423.287238,330.372857 421.54559,333.967143 418.369643,335.658571 Z" id="形狀"></path>
                    <path d="M290.363745,161 C289.73026,161 289.202357,160.527672 289.149567,159.897901 L289.149567,159.897901 C289.149567,159.897901 289.149567,159.897901 289.149567,159.897901 C289.149567,159.897901 289.149567,159.897901 289.149567,159.897901 C289.149567,159.897901 289.149567,159.897901 289.149567,159.897901 C289.149567,159.897901 289.149567,159.897901 289.149567,159.897901 C289.149567,159.897901 289.149567,159.897901 289.149567,159.897901 C289.149567,135.074427 274.209898,134.759542 274.051527,134.759542 C273.365253,134.759542 272.837349,134.234733 272.837349,133.552481 C272.837349,132.870229 273.365253,132.34542 274.051527,132.34542 C288.991196,132.34542 289.149567,107.469466 289.149567,107.207061 C289.149567,107.207061 289.149567,107.207061 289.149567,107.207061 C289.149567,106.524809 289.67747,106 290.363745,106 C290.944438,106 291.419552,106.419847 291.525132,106.944656 C291.525132,106.944656 291.525132,106.944656 291.525132,106.944656 L291.525132,106.944656 C291.525132,106.944656 291.525132,106.944656 291.525132,106.944656 C291.525132,106.944656 291.525132,106.944656 291.525132,106.944656 C291.525132,106.944656 291.525132,106.944656 291.525132,106.944656 L291.525132,106.944656 C291.525132,106.944656 291.525132,106.944656 291.525132,106.944656 L291.525132,106.944656 C291.525132,106.944656 291.525132,106.944656 291.525132,106.944656 C291.525132,106.944656 291.525132,106.944656 291.525132,106.944656 C291.525132,106.997137 291.525132,107.049618 291.525132,107.102099 L291.525132,107.102099 L291.525132,107.102099 C291.525132,107.102099 291.525132,107.102099 291.525132,107.102099 C291.525132,107.102099 291.525132,107.102099 291.525132,107.15458 C291.525132,107.15458 291.525132,107.15458 291.525132,107.15458 C291.525132,107.15458 291.525132,107.15458 291.525132,107.15458 C291.525132,107.15458 291.525132,107.15458 291.525132,107.15458 C291.525132,131.978053 306.4648,132.292939 306.623171,132.292939 C307.309446,132.292939 307.837349,132.817748 307.837349,133.5 C307.837349,134.182252 307.309446,134.707061 306.623171,134.707061 C291.683503,134.707061 291.525132,159.583015 291.525132,159.84542 C291.525132,159.84542 291.525132,159.84542 291.525132,159.84542 C291.577923,160.475191 291.050019,161 290.363745,161 Z M279.436143,133.709924 C283.342628,135.546756 288.304921,139.640267 290.469325,149.086832 C291.894665,142.894084 294.956505,135.861641 301.291346,133.290076 C297.384861,131.453244 292.422568,127.359733 290.258164,117.913168 C288.832825,124.105916 285.770984,131.138359 279.436143,133.709924 Z" id="形狀"></path>
                    <path d="M60.8373494,371 C60.2125738,371 59.6398629,370.473684 59.6398629,369.842105 C59.6398629,369.842105 59.6398629,369.842105 59.6398629,369.842105 C59.6398629,369.842105 59.6398629,369.842105 59.6398629,369.842105 L59.6398629,369.842105 C59.6398629,369.842105 59.6398629,369.842105 59.6398629,369.842105 C59.6398629,369.842105 59.6398629,369.842105 59.6398629,369.842105 C59.6398629,369.842105 59.6398629,369.842105 59.6398629,369.842105 C59.6398629,353.947368 33.2951591,353.736842 33.0348359,353.736842 C32.3579957,353.736842 31.8373494,353.210526 31.8373494,352.526316 C31.8373494,351.842105 32.3579957,351.315789 33.0348359,351.315789 C59.1712812,351.315789 59.6398629,335.894737 59.6398629,335.210526 L59.6398629,335.210526 C59.6398629,334.526316 60.1605092,334 60.8373494,334 C61.462125,334 62.0348359,334.526316 62.0348359,335.157895 C62.0348359,335.157895 62.0348359,335.157895 62.0348359,335.157895 C62.0348359,335.157895 62.0348359,335.157895 62.0348359,335.157895 L62.0348359,335.157895 C62.0348359,335.157895 62.0348359,335.157895 62.0348359,335.157895 C62.0348359,335.157895 62.0348359,335.157895 62.0348359,335.157895 C62.0348359,335.157895 62.0348359,335.157895 62.0348359,335.157895 C62.0348359,351.052632 88.3795397,351.263158 88.6398629,351.263158 C89.3167031,351.263158 89.8373494,351.789474 89.8373494,352.473684 C89.8373494,353.157895 89.3167031,353.684211 88.6398629,353.684211 C62.5034176,353.684211 62.0348359,369.105263 62.0348359,369.789474 L62.0348359,369.789474 C62.0348359,370.473684 61.5141896,371 60.8373494,371 Z M44.0725379,352.631579 C50.7368108,354.157895 58.3903117,357.368421 61.0456079,364.315789 C62.9199347,360.105263 67.3454284,354.684211 77.6021609,352.421053 C70.937888,350.894737 63.2843871,347.684211 60.6290909,340.736842 C58.7547641,344.894737 54.3292704,350.315789 44.0725379,352.631579 Z" id="形狀"></path>
                </g>
            </g>
        </g>
    </g>
</svg>