<?xml version="1.0" encoding="UTF-8"?>
<svg width="65px" height="106px" viewBox="0 0 65 106" version="1.1" xmlns="http://www.w3.org/2000/svg" xmlns:xlink="http://www.w3.org/1999/xlink">
    <!-- Generator: Sketch 55.2 (78181) - https://sketchapp.com -->
    <title>diamond</title>
    <desc>Created with Sketch.</desc>
    <g id="Page-1" stroke="none" stroke-width="1" fill="none" fill-rule="evenodd">
        <g id="play" transform="translate(-977.000000, -95.000000)" fill="#83A8BD" fill-rule="nonzero">
            <path d="M1009.96,200.94 L1009.04,200.94 C1009.04,186.01 1006.25,165.96 992.98,155.18 C985.08,148.77 977.12,148.7 977.04,148.7 L977.04,147.78 C1008.68,147.78 1009.04,96.06 1009.04,95.54 L1009.96,95.54 C1009.96,110.47 1012.75,130.52 1026.02,141.3 C1033.92,147.71 1041.88,147.78 1041.96,147.78 L1041.96,148.7 C1010.32,148.7 1009.96,200.42 1009.96,200.94 Z M981.31,148.38 C984.47,149.12 989,150.77 993.56,154.47 C1004.65,163.47 1008.57,178.71 1009.63,192.24 C1011.19,178.09 1016.88,151.32 1037.69,148.1 C1034.53,147.36 1030,145.71 1025.44,142.01 C1014.35,133.01 1010.43,117.77 1009.37,104.24 C1007.82,118.39 1002.12,145.15 981.31,148.38 Z" id="diamond"></path>
        </g>
    </g>
</svg>