<?xml version="1.0" encoding="UTF-8"?>
<svg width="67px" height="98px" viewBox="0 0 67 98" version="1.1" xmlns="http://www.w3.org/2000/svg" xmlns:xlink="http://www.w3.org/1999/xlink">
    <!-- Generator: Sketch 55.2 (78181) - https://sketchapp.com -->
    <title>clover</title>
    <desc>Created with Sketch.</desc>
    <g id="Page-1" stroke="none" stroke-width="1" fill="none" fill-rule="evenodd">
        <g id="play" transform="translate(-1116.000000, -99.000000)" fill="#83A8BD" fill-rule="nonzero">
            <g id="clover" transform="translate(1116.580000, 99.600000)">
                <path d="M16.69,61.51 C7.49,61.51 4.97379915e-14,54.02 4.97379915e-14,44.82 C4.97379915e-14,35.62 7.49,28.13 16.69,28.13 C25.89,28.13 33.38,35.62 33.38,44.82 C33.38,54.02 25.89,61.51 16.69,61.51 Z M16.69,29.05 C7.99,29.05 0.92,36.13 0.92,44.82 C0.92,53.52 8,60.59 16.69,60.59 C25.38,60.59 32.46,53.51 32.46,44.82 C32.46,36.12 25.39,29.05 16.69,29.05 Z" id="形狀"></path>
                <path d="M49.15,61.51 C39.95,61.51 32.46,54.02 32.46,44.82 C32.46,35.62 39.95,28.13 49.15,28.13 C58.35,28.13 65.84,35.62 65.84,44.82 C65.84,54.02 58.35,61.51 49.15,61.51 Z M49.15,29.05 C40.45,29.05 33.38,36.13 33.38,44.82 C33.38,53.52 40.46,60.59 49.15,60.59 C57.84,60.59 64.92,53.52 64.92,44.82 C64.92,36.12 57.85,29.05 49.15,29.05 Z" id="形狀"></path>
                <path d="M32.92,33.37 C23.72,33.37 16.23,25.88 16.23,16.68 C16.23,7.48 23.72,-5.32907052e-14 32.92,-5.32907052e-14 C42.12,-5.32907052e-14 49.61,7.49 49.61,16.69 C49.61,25.89 42.12,33.37 32.92,33.37 Z M32.92,0.91 C24.22,0.91 17.15,7.99 17.15,16.68 C17.15,25.37 24.22,32.46 32.92,32.46 C41.62,32.46 48.69,25.38 48.69,16.69 C48.69,8 41.62,0.91 32.92,0.91 Z" id="形狀"></path>
                <path d="M54.96,97.28 L10.88,97.28 L10.88,96.36 C32.21,96.36 32.46,61.39 32.46,61.04 L33.38,61.04 C33.38,95.95 54.74,96.36 54.96,96.36 L54.96,97.28 L54.96,97.28 Z M16.66,96.37 L50.41,96.37 C44.51,94.39 34.76,88.14 32.81,68.4 C31.62,77.58 27.95,92.54 16.66,96.37 Z" id="形狀"></path>
            </g>
        </g>
    </g>
</svg>