<?xml version="1.0" encoding="UTF-8"?>
<svg width="67px" height="87px" viewBox="0 0 67 87" version="1.1" xmlns="http://www.w3.org/2000/svg" xmlns:xlink="http://www.w3.org/1999/xlink">
    <!-- Generator: Sketch 55.2 (78181) - https://sketchapp.com -->
    <title>spade</title>
    <desc>Created with Sketch.</desc>
    <g id="Page-1" stroke="none" stroke-width="1" fill="none" fill-rule="evenodd">
        <g id="play" transform="translate(-696.000000, -106.000000)" fill="#83A8BD" fill-rule="nonzero">
            <g id="spade" transform="translate(696.580000, 106.050000)">
                <path d="M32.92,65.84 C14.77,65.84 -4.26325641e-14,51.07 -4.26325641e-14,32.92 C-4.26325641e-14,14.77 14.77,7.10542736e-14 32.92,7.10542736e-14 C51.07,7.10542736e-14 65.84,14.77 65.84,32.92 C65.84,51.08 51.07,65.84 32.92,65.84 Z M32.92,0.92 C15.27,0.92 0.92,15.28 0.92,32.92 C0.92,50.56 15.28,64.92 32.92,64.92 C50.56,64.92 64.92,50.56 64.92,32.92 C64.92,15.28 50.57,0.92 32.92,0.92 Z" id="形狀"></path>
                <path d="M42.81,86.08 L23.03,86.08 L23.03,85.16 C32.35,85.16 32.46,69.72 32.46,69.57 L33.38,69.57 C33.38,84.94 42.43,85.16 42.81,85.16 L42.81,86.08 Z M26.84,85.17 L39.49,85.17 C37.03,83.96 33.91,81.15 32.84,74.64 C32.15,78.39 30.54,83.19 26.84,85.17 Z" id="形狀"></path>
            </g>
        </g>
    </g>
</svg>